<svg xmlns="http://www.w3.org/2000/svg" width="18" height="18" viewBox="0 0 18 18"><defs><style>.a{fill:#fcf7ed;}</style></defs><g transform="translate(0 -0.001)"><path class="a" d="M17.006,0H.993A.993.993,0,0,0,0,.994V17.007A.994.994,0,0,0,.993,18H9.614V11.03H7.269V8.313H9.614v-2a3.273,3.273,0,0,1,3.493-3.591,19.455,19.455,0,0,1,2.1.107v2.43H13.765c-1.128,0-1.345.536-1.345,1.322V8.313H15.11l-.352,2.717H12.419V18h4.587A.994.994,0,0,0,18,17.007V.994A.994.994,0,0,0,17.006,0Z" transform="translate(0 0)"/></g></svg>