<svg xmlns="http://www.w3.org/2000/svg" xmlns:xlink="http://www.w3.org/1999/xlink" width="557.885" height="137.929" viewBox="0 0 557.885 137.929"><defs><style>.a{fill:none;stroke:#fcf7ed;stroke-linejoin:round;stroke-width:2px;}.b,.c,.d,.e{fill:#fff;}.b{font-size:10px;}.b,.c,.e{font-family:TradeGothicLTStd-BoldExt, Trade Gothic LT Std;font-weight:700;letter-spacing:0.3em;}.c{font-size:5px;}.e{font-size:16px;}.f{fill:#2b0509;}.g{fill:url(#a);}</style><linearGradient id="a" y1="0.5" x2="1" y2="0.5" gradientUnits="objectBoundingBox"><stop offset="0" stop-color="#ffd78f"/><stop offset="0.501" stop-color="#be8735"/><stop offset="1" stop-color="#764314"/></linearGradient></defs><g transform="translate(-90.188 -88.743)"><path class="a" d="M640.857,225.672H97.4a6.216,6.216,0,0,0-6.216-6.216V95.959A6.216,6.216,0,0,0,97.4,89.743H640.857a6.216,6.216,0,0,0,6.216,6.216v123.5A6.216,6.216,0,0,0,640.857,225.672Z"/><g transform="translate(117.729 151.085)"><text class="b" transform="translate(477.077 7)"><tspan x="-18.94" y="0">1982</tspan></text><g transform="translate(0 0)"><text class="b" transform="translate(15 7)"><tspan x="-15.215" y="0">EST</tspan></text><g transform="translate(36.771 0.315)"><text class="c" transform="translate(2 4)"><tspan x="-2.223" y="0">D</tspan></text><g transform="translate(2.015 6.284)"><path class="d" d="M836.585,864.3a.646.646,0,1,1-.646.646A.662.662,0,0,1,836.585,864.3Z" transform="translate(-835.939 -864.3)"/></g></g></g></g><g transform="translate(291.624 194.98)"><text class="e" transform="translate(75.215 12)"><tspan x="-55.544" y="0">LONDON</tspan></text><g transform="translate(0 5.314)"><circle class="d" cx="1.616" cy="1.616" r="1.616"/><circle class="d" cx="1.616" cy="1.616" r="1.616" transform="translate(151.78)"/></g></g><g transform="translate(179.321 133.024)"><g transform="translate(0 0.012)"><g transform="translate(2.927 3.084)"><path class="f" d="M1129.315,626.657h27.157v7.734h-9.712v31.054h-7.734V634.391h-9.712Z" transform="translate(-1129.315 -625.938)"/><path class="f" d="M1548.086,634.391h-19.424v7.794h15.527v7.733h-15.527v7.794h19.424v7.734h-27.157V626.657h27.157Z" transform="translate(-1486.578 -625.938)"/><path class="f" d="M1942.645,665.445l-7.913-12.949h-4.2v12.949H1922.8V626.657h15.527a12.845,12.845,0,0,1,7.314,2.1c2.4,1.739,4.317,4.976,4.317,10.791a15.544,15.544,0,0,1-2.038,8.393,9.488,9.488,0,0,1-4.556,3.717l8.993,13.789Zm-12.11-31.054v10.371h7.793c2.218,0,3.9-1.319,3.9-5.216,0-3.837-1.679-5.156-3.9-5.156Z" transform="translate(-1853.199 -625.938)"/><path class="f" d="M2351.346,665.445l-7.914-12.949h-4.2v12.949H2331.5V626.657h15.527a12.845,12.845,0,0,1,7.314,2.1c2.4,1.739,4.316,4.976,4.316,10.791a15.545,15.545,0,0,1-2.038,8.393,9.489,9.489,0,0,1-4.556,3.717l8.993,13.789Zm-12.11-31.054v10.371h7.793c2.218,0,3.9-1.319,3.9-5.216,0-3.837-1.679-5.156-3.9-5.156Z" transform="translate(-2226.052 -625.938)"/><path class="f" d="M2705.446,626.657h8.633l-13.789,23.261v15.527H2692.5V649.918l-13.789-23.261h8.633l9.052,16.307Z" transform="translate(-2542.801 -625.938)"/><path class="f" d="M3150.949,622.293a4.231,4.231,0,0,1-.36,1.439,6.7,6.7,0,0,0-.3.779,22.234,22.234,0,0,1-3.177,4.137c-.659.659-1.319,1.319-1.978,1.918l-1.5-1.079,1.259-2.158a7.4,7.4,0,0,0,.839-2.338,3.141,3.141,0,0,1-2.278-2.938,3.62,3.62,0,0,1,3.657-3.6A3.864,3.864,0,0,1,3150.949,622.293Z" transform="translate(-2966.782 -618.456)"/><path class="f" d="M3305.446,629.487c0,2.158,2.1,3.3,4.916,4.376,1.379.539,2.938,1.139,4.556,1.679,3.237,1.2,6.115,2.878,8.033,5.7a9.724,9.724,0,0,1,1.379,5.4,10.963,10.963,0,0,1-3.058,8.153,13.11,13.11,0,0,1-6.115,3.3,17,17,0,0,1-4.316.6c-4.257,0-7.194-.959-9.172-2.4a9.967,9.967,0,0,1-3.717-5.1,15.292,15.292,0,0,1-.719-4.676h7.794c0,2.1.719,3.3,1.8,4.017a7.769,7.769,0,0,0,3.957,1.019,7.336,7.336,0,0,0,4.017-.779,3.438,3.438,0,0,0,1.8-3.117c0-2.158-2.1-3.417-4.916-4.5-1.379-.54-2.938-1.079-4.556-1.679a15.317,15.317,0,0,1-8.033-5.635,9.058,9.058,0,0,1-1.439-5.336c0-3.837,1.259-6.535,3-8.273a12.242,12.242,0,0,1,5.875-3.237,18.453,18.453,0,0,1,4.316-.54c5.276,0,8.453,1.619,10.311,3.717a12.649,12.649,0,0,1,2.758,6.774l-7.374.659a4.255,4.255,0,0,0-2.038-3.237,7.676,7.676,0,0,0-3.717-.779C3307.844,625.59,3305.446,626.369,3305.446,629.487Z" transform="translate(-3107.071 -618.456)"/><path class="f" d="M3901.348,653.827a18.872,18.872,0,0,1-26.378-1.079,20.174,20.174,0,0,1-5.7-14.208,20.388,20.388,0,0,1,5.7-14.208,18.942,18.942,0,0,1,26.378-1.019l-5.515,5.635a11.106,11.106,0,0,0-7.194-2.578,11.444,11.444,0,0,0-8.273,3.537,12.561,12.561,0,0,0-3.417,8.633,12.3,12.3,0,0,0,3.417,8.573,11.265,11.265,0,0,0,8.273,3.6,11.06,11.06,0,0,0,7.194-2.518Z" transform="translate(-3628.936 -618.456)"/><path class="f" d="M4310.545,665.445l-1.918-7.734h-12.11l-1.918,7.734h-7.733l9.892-38.788h11.63l9.952,38.788Zm-12.11-15.527h8.273l-4.137-15.947Z" transform="translate(-4009.897 -625.938)"/><path class="f" d="M4721.758,649.918v15.527h-7.733V626.657h27.157v7.734h-19.424v7.794h15.527v7.733Z" transform="translate(-4399.588 -625.938)"/><path class="f" d="M5125.961,634.391h-19.424v7.794h15.527v7.733h-15.527v7.794h19.424v7.734H5098.8V626.657h27.158Z" transform="translate(-4750.615 -625.938)"/></g><g transform="translate(0 0.719)"><path class="f" d="M1108.583,633.366l-2.927-3.084,1.464-29.076-8.248,1.106-2.927-3.084,27.157-7.734,2.927,3.084-4.8,5.932-8.322,1.159.427,30.709Z" transform="translate(-1095.944 -591.494)"/><path class="f" d="M1487.558,630.281l2.927,3.084,27.157-7.734-2.927-3.084-18.468.183.811-6.345,16.688-6.281-2.927-3.084-14.687,3.9-.941-11,22.453-5.336-2.927-3.084-23.1,6.583Z" transform="translate(-1453.207 -591.494)"/><path class="f" d="M2300.332,668.561l-2.927-3.084,8.782-17.852h7.724l4.615-6.461-3.416-9.908,6.554-1.183,2.594,2.729-2.929,19.127-1.815,4.79.662,11.842-2.927-3.084-.825-11.694-10.313-1.159Z" transform="translate(-2192.017 -626.689)"/><path class="f" d="M1892.357,668.561l-2.927-3.084,8.782-17.852h7.723l4.615-6.461-3.416-9.908,6.554-1.183,2.594,2.729-2.928,19.127-1.815,4.79.662,11.842-2.927-3.084-.825-11.694-10.313-1.159Z" transform="translate(-1819.828 -626.689)"/><path class="f" d="M2743.754,591.494l2.927,3.084,6.338,14.392,17.473-17.477,2.927,3.084-17.685,23.083-3.9,15.705-2.927-3.084,3.992-18.843Z" transform="translate(-2599.214 -591.494)"/><path class="f" d="M3116.56,610.181l4.566-11.091-2.841-2.979-4.652,9.139-1.5.768,2.927,3.084Z" transform="translate(-2935.281 -595.706)"/><path class="f" d="M3291.924,911.116l3.43,3.6,4.829-8.484-2.927-3.084Z" transform="translate(-3099.301 -875.813)"/><path class="f" d="M3483.935,630.387l2.927,3.084,5.822-1.542-1.861-6.557-2.514-2.68Z" transform="translate(-3274.469 -619.955)"/><path class="f" d="M3300.682,800.608l-3.449-3.624,4,.919Z" transform="translate(-3104.144 -778.959)"/><path class="f" d="M4144.19,638.652l2.927,3.084-5.516,5.635-2.927-3.084Z" transform="translate(-3871.778 -634.515)"/><path class="f" d="M4203.924,989.616,4201,986.532l-.053,2.1Z" transform="translate(-3928.584 -951.88)"/><path class="f" d="M4253.494,630.281l2.927,3.084,7.771-7.9,13.829-1.113-.847,5.931,2.927,3.084,4.993-2.353-7.151-36.434-2.927-3.084,1.249,26.345-15.394,1.29Z" transform="translate(-3976.525 -591.494)"/><path class="f" d="M5065.432,630.281l2.927,3.084,27.158-7.734-2.927-3.084-18.537.637.541-8.112,17.026-4.968-2.927-3.084-16.841,1.331,2.472-6.528,21.193-7.246-2.927-3.084-24.37,10.06Z" transform="translate(-4717.243 -591.494)"/><path class="f" d="M4683.581,633.366l-2.927-3.084,4.595-32.011,22.563-6.776,2.927,3.084-2.082,5.855-19.7.039.271,8.691,14.688-2.142,2.927,3.084-17.267,6.822Z" transform="translate(-4366.216 -591.494)"/></g><path class="d" d="M1095.944,591.494H1123.1v7.734h-9.712v31.054h-7.734V599.228h-9.712Z" transform="translate(-1095.944 -590.775)"/><path class="d" d="M1514.715,599.228h-19.424v7.794h15.527v7.734h-15.527v7.794h19.424v7.734h-27.157V591.494h27.157Z" transform="translate(-1453.207 -590.775)"/><path class="d" d="M1909.273,630.282l-7.913-12.949h-4.2v12.949h-7.734V591.494h15.527a12.844,12.844,0,0,1,7.314,2.1c2.4,1.739,4.316,4.976,4.316,10.791a15.546,15.546,0,0,1-2.038,8.393,9.489,9.489,0,0,1-4.556,3.717l8.993,13.789Zm-12.11-31.054V609.6h7.794c2.218,0,3.9-1.319,3.9-5.216,0-3.837-1.679-5.156-3.9-5.156Z" transform="translate(-1819.827 -590.775)"/><path class="d" d="M2317.976,630.282l-7.914-12.949h-4.2v12.949h-7.734V591.494h15.527a12.844,12.844,0,0,1,7.314,2.1c2.4,1.739,4.316,4.976,4.316,10.791a15.545,15.545,0,0,1-2.038,8.393,9.489,9.489,0,0,1-4.556,3.717l8.992,13.789Zm-12.11-31.054V609.6h7.793c2.218,0,3.9-1.319,3.9-5.216,0-3.837-1.679-5.156-3.9-5.156Z" transform="translate(-2192.681 -590.775)"/><path class="d" d="M2672.074,591.494h8.633l-13.789,23.261v15.527h-7.793V614.755l-13.789-23.261h8.633l9.052,16.306Z" transform="translate(-2509.429 -590.775)"/><path class="d" d="M3117.578,587.129a4.236,4.236,0,0,1-.36,1.439,6.708,6.708,0,0,0-.3.779,22.215,22.215,0,0,1-3.177,4.137c-.659.659-1.319,1.319-1.978,1.918l-1.5-1.079,1.259-2.158a7.4,7.4,0,0,0,.839-2.338,3.141,3.141,0,0,1-2.278-2.938,3.619,3.619,0,0,1,3.657-3.6A3.864,3.864,0,0,1,3117.578,587.129Z" transform="translate(-2933.411 -583.292)"/><path class="d" d="M3272.075,594.323c0,2.158,2.1,3.3,4.916,4.376,1.379.539,2.938,1.139,4.556,1.679,3.237,1.2,6.115,2.878,8.033,5.7a9.726,9.726,0,0,1,1.379,5.4,10.963,10.963,0,0,1-3.057,8.153,13.111,13.111,0,0,1-6.115,3.3,17,17,0,0,1-4.316.6c-4.257,0-7.194-.959-9.172-2.4a9.967,9.967,0,0,1-3.717-5.1,15.29,15.29,0,0,1-.719-4.676h7.793c0,2.1.719,3.3,1.8,4.017a7.768,7.768,0,0,0,3.957,1.019,7.337,7.337,0,0,0,4.017-.779,3.438,3.438,0,0,0,1.8-3.117c0-2.158-2.1-3.417-4.916-4.5-1.379-.54-2.938-1.079-4.556-1.679a15.318,15.318,0,0,1-8.033-5.635,9.059,9.059,0,0,1-1.439-5.336c0-3.837,1.259-6.535,3-8.273a12.242,12.242,0,0,1,5.875-3.237,18.454,18.454,0,0,1,4.316-.54c5.276,0,8.453,1.619,10.312,3.717a12.651,12.651,0,0,1,2.758,6.774l-7.374.659a4.255,4.255,0,0,0-2.038-3.237,7.676,7.676,0,0,0-3.717-.779C3274.473,590.426,3272.075,591.205,3272.075,594.323Z" transform="translate(-3073.7 -583.292)"/><path class="d" d="M3867.977,618.663a18.873,18.873,0,0,1-26.378-1.079,20.174,20.174,0,0,1-5.7-14.208,20.388,20.388,0,0,1,5.7-14.208,18.943,18.943,0,0,1,26.378-1.019l-5.516,5.635a11.106,11.106,0,0,0-7.194-2.578,11.444,11.444,0,0,0-8.273,3.537,12.561,12.561,0,0,0-3.417,8.633,12.3,12.3,0,0,0,3.417,8.573,11.266,11.266,0,0,0,8.273,3.6,11.059,11.059,0,0,0,7.194-2.518Z" transform="translate(-3595.564 -583.292)"/><path class="d" d="M4277.174,630.282l-1.918-7.734h-12.11l-1.918,7.734h-7.733l9.892-38.788h11.631l9.952,38.788Zm-12.11-15.527h8.273l-4.137-15.947Z" transform="translate(-3976.526 -590.775)"/><path class="d" d="M4688.386,614.755v15.527h-7.733V591.494h27.157v7.734h-19.424v7.794h15.527v7.734Z" transform="translate(-4366.216 -590.775)"/><path class="d" d="M5092.589,599.228h-19.424v7.794h15.527v7.734h-15.527v7.794h19.424v7.734h-27.158V591.494h27.158Z" transform="translate(-4717.243 -590.775)"/></g><g transform="translate(0.035 0)"><path class="g" d="M1096.346,591.56a.288.288,0,0,1,.2-.058h26.96c.117,0,.176.039.176.117v7.728c0,.078-.059.117-.175.117h-9.426v30.648q0,.176-.148.176h-7.813q-.119,0-.118-.176V599.464h-9.4c-.116,0-.184-.039-.2-.117v-7.615A.231.231,0,0,1,1096.346,591.56Zm.568.231,3.542,3.488h19.115l3.531-3.488Zm13.278,34.429,3.513,3.542V599.4l-3.513-3.592Zm9.671-30.763,3.472,3.474v-6.909Z" transform="translate(-1096.346 -590.77)"/><path class="g" d="M1486.465,630.113V591.56l.058-.058h27.165v.058h.059v7.785l-.059.06a.052.052,0,0,1-.058.059h-19.144v7.465h15.222l.088.058h.058v.058a.052.052,0,0,1,.059.058v7.7l-.059.059a.052.052,0,0,1-.058.059h-15.31v7.347h19.144a.052.052,0,0,0,.058.059v.059h.059v7.728a.168.168,0,0,1-.059.117l-.058.059h-26.989A.155.155,0,0,1,1486.465,630.113Zm.527-38.376,3.542,3.542h19.115l3.542-3.542Zm3.659,18.764,3.542-3.481V599.4l-3.542-3.592Zm0,15.4,3.542-3.532v-7.5l-3.542-3.567Zm.176-15.163h14.988l3.542-3.513h-14.988Zm0,15.368h18.822l3.542-3.542h-18.822Zm15.31-15.25,3.4,3.508v-6.9Zm3.835-15.4,3.454,3.474v-6.957Zm0,30.766,3.454,3.483v-6.967Z" transform="translate(-1452.245 -590.77)"/><path class="g" d="M1888.931,630.113V591.56a.052.052,0,0,0,.059-.058H1904.5a17.07,17.07,0,0,1,3.659.456,9.979,9.979,0,0,1,3.849,1.806,10.118,10.118,0,0,1,3,3.936,16.248,16.248,0,0,1,1.2,6.785v.121a.145.145,0,0,1-.059.112v.054q0,.049-.068.749t-.139,1.556l-.026.311q-.892,6.957-6.189,9.091l8.811,13.575v.176h-.059v.059h-9.717a.167.167,0,0,1-.117-.059l-7.806-12.792h-3.893V630.23h-.058l-.059.059h-7.728A.155.155,0,0,1,1888.931,630.113Zm.5-38.318,3.542,3.484h11.5q4.069,0,5.972,2.22t1.9,6.986a13.446,13.446,0,0,1-.849,5.11,7.49,7.49,0,0,0-.263.847,5.463,5.463,0,0,0-.176,1.112,4.476,4.476,0,0,0,.059,1.039.693.693,0,0,0,.44.6,1.52,1.52,0,0,0,.469.059q1.946,0,3.155-3.454a8.651,8.651,0,0,0,.472-2.4.853.853,0,0,0,.013-.174l.1-1.306s.019-.246.059-.739v0s.01-.121.029-.367.029-.368.029-.367a15.761,15.761,0,0,0-1.166-6.616,10.173,10.173,0,0,0-2.913-3.835,9.244,9.244,0,0,0-3.723-1.771,17.351,17.351,0,0,0-3.615-.424Zm3.688,21.34,3.542-3.495V599.4l-3.542-3.592Zm0,13.056,3.542,3.542V617.38l-3.542-3.517Zm.234-12.939h11.133a8.875,8.875,0,0,0,4.325-.937q1.286-.995,1.286-1.61a.809.809,0,0,0-.029-.2.888.888,0,0,0-.623-.5,6.945,6.945,0,0,0-1.186-.266,9.579,9.579,0,0,0-1.368-.1,6.294,6.294,0,0,0-1.244.113q-.235,0-.527.023t-.5.022h-7.728Zm3.6-3.747h7.552q3.659,0,3.659-5.02t-3.659-5.02h-7.552Zm6.469,4.3,8.027,12.334,6.469,3.542-8.562-13.143Z" transform="translate(-1819.408 -590.77)"/><path class="g" d="M2297.4,630.113V591.56a.052.052,0,0,0,.059-.058h15.515a17.069,17.069,0,0,1,3.659.456,9.979,9.979,0,0,1,3.849,1.806,10.116,10.116,0,0,1,3,3.936,16.252,16.252,0,0,1,1.2,6.785v.121a.146.146,0,0,1-.059.112v.054q0,.049-.068.749t-.139,1.556l-.026.311q-.893,6.957-6.189,9.091l8.811,13.575v.176h-.059v.059h-9.717a.167.167,0,0,1-.117-.059l-7.806-12.792h-3.893V630.23h-.059l-.058.059h-7.728A.155.155,0,0,1,2297.4,630.113Zm.5-38.318,3.542,3.484h11.5q4.068,0,5.971,2.22t1.9,6.986a13.441,13.441,0,0,1-.849,5.11,7.541,7.541,0,0,0-.263.847,5.446,5.446,0,0,0-.176,1.112,4.483,4.483,0,0,0,.058,1.039.693.693,0,0,0,.44.6,1.52,1.52,0,0,0,.469.059q1.945,0,3.155-3.454a8.66,8.66,0,0,0,.472-2.4.862.862,0,0,0,.013-.174q.1-1.306.1-1.306s.019-.246.058-.739v0s.01-.121.029-.367.029-.368.029-.367a15.761,15.761,0,0,0-1.166-6.616,10.172,10.172,0,0,0-2.913-3.835,9.242,9.242,0,0,0-3.723-1.771,17.35,17.35,0,0,0-3.615-.424Zm3.688,21.34,3.542-3.495V599.4l-3.542-3.592Zm0,13.056,3.542,3.542V617.38l-3.542-3.517Zm.234-12.939h11.133a8.874,8.874,0,0,0,4.325-.937q1.286-.995,1.286-1.61a.815.815,0,0,0-.029-.2.889.889,0,0,0-.623-.5,6.95,6.95,0,0,0-1.187-.266,9.577,9.577,0,0,0-1.368-.1,6.29,6.29,0,0,0-1.244.113q-.235,0-.527.023c-.2.015-.361.022-.5.022h-7.728Zm3.6-3.747h7.552q3.659,0,3.659-5.02t-3.659-5.02h-7.552Zm6.469,4.3,8.027,12.334,6.469,3.542-8.562-13.143Z" transform="translate(-2192.052 -590.77)"/><path class="g" d="M2646.809,591.736V591.5h8.753l.059.058,8.783,15.9,8.839-15.9a.052.052,0,0,0,.059-.058h8.752v.058h.059v.117h-.059v.059l-13.612,23.038v15.339c0,.039-.039.1-.117.176h-.059a.167.167,0,0,1-.117-.059H2660.6a.188.188,0,0,1-.2-.176v-15.28Zm.7.058,5.825,3.484,1.844-3.484Zm6.032,3.659,10.685,18.12v-5.767l-4.391-7.9-4.362-7.933Zm11.033,30.59,3.571,3.718V614.627l13.29-22.54-2.576,1.581-3.279,1.9-11.007,18.647Zm9.075-34.249,1.873,3.484,2.693-1.61,3.1-1.874Z" transform="translate(-2510.808 -590.77)"/><path class="g" d="M3110.012,586.951a3.914,3.914,0,0,1,.811-2.366,3.462,3.462,0,0,1,2.262-1.367h.085a1.7,1.7,0,0,1,.514-.059,4.015,4.015,0,0,1,4.027,4.057,3.706,3.706,0,0,1-.323,1.379,6.071,6.071,0,0,1-.382.845.627.627,0,0,0-.162.282.625.625,0,0,1-.163.281l-.118.118c-.039.08-.079.159-.118.237l-.118.237h-.059l-.354.563a5.2,5.2,0,0,0-.443.534,28.879,28.879,0,0,1-2.023,2.261q-.989.985-1.39,1.323c-.038,0-.057.01-.057.029s-.019.029-.057.029v.059h-.085c0,.039-.039.059-.117.059h-.059V595.4l-1.385-.973q-.226,0-.057-.178a13.756,13.756,0,0,0,1.932-4.3,3.487,3.487,0,0,1-1.491-1.1A2.869,2.869,0,0,1,3110.012,586.951Zm1.844-2.965,2.342,3.291a3.722,3.722,0,0,0,.133.5,3.1,3.1,0,0,1-.025,1.334,11.627,11.627,0,0,1-.645,2.135,12.6,12.6,0,0,1-1.719,2.876v.919l.057-.059a.1.1,0,0,0,.115-.119c.037,0,.094-.039.171-.119l.114-.148.172-.178.057-.059.229-.237.228-.237.143-.118.228-.238.115-.148a1.69,1.69,0,0,0,.285-.356c.038,0,.057-.01.057-.029s.019-.03.057-.03a2.833,2.833,0,0,1,.613-.653.172.172,0,0,1,.059-.118l.3-.326a.481.481,0,0,0,.089-.119.471.471,0,0,1,.089-.119,1.277,1.277,0,0,1,.236-.3c.039-.039.06-.069.06-.089s.02-.049.059-.089a1.973,1.973,0,0,0,.162-.177c.029-.039.064-.089.1-.149,0-.039.01-.06.029-.06s.03-.02.03-.059a.844.844,0,0,0,.148-.178.85.85,0,0,1,.148-.178l.177-.356q.118-.118.118-.178a3.21,3.21,0,0,0,.3-.564,2.624,2.624,0,0,0,.369-.756,3.517,3.517,0,0,0,.311-1.29,3.7,3.7,0,0,0-1.059-2.668,3.493,3.493,0,0,0-2.617-1.1,1.457,1.457,0,0,0-.457.058h-.057a1.078,1.078,0,0,0-.428.118A3.819,3.819,0,0,0,3111.856,583.985Z" transform="translate(-2933.381 -583.16)"/><path class="g" d="M3263.524,611.174v-.234c0-.078.049-.127.146-.146h7.728c.078,0,.117.049.117.146v.176l.059.059a4.442,4.442,0,0,0,1.317,3.542,6.749,6.749,0,0,0,4.186,1.259,1.1,1.1,0,0,0,.439.058.812.812,0,0,0,.351-.058,7.716,7.716,0,0,0,1.376-.161,6.354,6.354,0,0,0,1.625-.541,3.65,3.65,0,0,0,1.317-1.1,3.106,3.106,0,0,0,.542-1.917,2.623,2.623,0,0,0-.571-1.683,5.673,5.673,0,0,0-1.508-1.288,13.577,13.577,0,0,0-2.2-1.054q-1.259-.483-2.635-.951-1.991-.731-4.113-1.6a15.489,15.489,0,0,1-3.82-2.21,11.122,11.122,0,0,1-2.81-3.337,9.825,9.825,0,0,1-1.112-4.859,13.114,13.114,0,0,1,.776-4.786,10.81,10.81,0,0,1,2.005-3.337,10,10,0,0,1,2.752-2.166,13.971,13.971,0,0,1,2.971-1.186,18.5,18.5,0,0,1,2.649-.512,18.207,18.207,0,0,1,1.844-.132h.176q11.738,0,13.144,10.567a.169.169,0,0,1-.059.117l-.059.059h-.059l-7.318.644a.1.1,0,0,1-.117-.117q-.527-3.835-5.591-3.835-5.152,0-5.152,3.718a.4.4,0,0,0,.029.176.512.512,0,0,1,.029.2v.176a.523.523,0,0,1,.058.234.24.24,0,0,1,.059.176l.117.234a.118.118,0,0,0,.029.088.121.121,0,0,1,.029.088,1.378,1.378,0,0,1,.205.263l.059.117a.942.942,0,0,1,.176.234.1.1,0,0,1,.117.117.94.94,0,0,1,.234.176l.117.117a.729.729,0,0,1,.146.088.65.65,0,0,0,.146.088c0,.078.048.117.146.117a.407.407,0,0,1,.146.1.4.4,0,0,0,.146.1c.039.039.068.058.088.058s.048.02.088.059a1.325,1.325,0,0,0,.293.176c.039.039.068.058.088.058s.048.02.088.059a.713.713,0,0,1,.146.088.653.653,0,0,0,.176.088.265.265,0,0,1,.117.029.255.255,0,0,0,.117.029l.351.176a.12.12,0,0,1,.088.029.118.118,0,0,0,.088.029l.351.176a.264.264,0,0,1,.132.044.261.261,0,0,0,.132.044l.351.176a.34.34,0,0,1,.234.117,2.5,2.5,0,0,1,.41.117.445.445,0,0,1,.263.117.905.905,0,0,1,.351.117.4.4,0,0,1,.293.117q.351.117.673.234a3.381,3.381,0,0,1,1.025.38q1.932.674,3.835,1.537a14.982,14.982,0,0,1,3.469,2.181,10.309,10.309,0,0,1,2.547,3.235,10.021,10.021,0,0,1,.981,4.61v.966a.654.654,0,0,1-.059.293,2.79,2.79,0,0,1-.058.644v.322q-.118.469-.176.644v.234q-.059.176-.117.4t-.117.454q-.059.235-.117.424a2.87,2.87,0,0,1-.176.424,4.484,4.484,0,0,1-.249.527,3.733,3.733,0,0,0-.249.556l-.117.117a9.133,9.133,0,0,1-3.264,3.5,17.95,17.95,0,0,1-3.923,1.815,15.1,15.1,0,0,1-3.337.7q-1.421.1-1.6.1a17.044,17.044,0,0,1-7.143-1.259,10.774,10.774,0,0,1-4.127-3.147,10.072,10.072,0,0,1-1.888-4A18.329,18.329,0,0,1,3263.524,611.174Zm.791.176,3.6,3.249,1.991-2.166.937-1.083Zm1.171-21.4a4.7,4.7,0,0,0-.029.527,2.287,2.287,0,0,0,.059.556q.234.527.468.585a.983.983,0,0,0,.439.117q1.2,0,3.1-2.137a8.116,8.116,0,0,1,2.825-2.078q1.273-.468,1.332-.468a15.679,15.679,0,0,1,3.63-.41,11.57,11.57,0,0,1,3.644.512,10.483,10.483,0,0,1,2.518,1.171,8.077,8.077,0,0,1,1.493,1.229q.512.571.629.688l4.274,3.191a1.084,1.084,0,0,0-.044-.278,1.076,1.076,0,0,1-.044-.278.647.647,0,0,1-.059-.293.652.652,0,0,0-.059-.293,1.981,1.981,0,0,1-.117-.615l-.176-.527-.176-.556a4.39,4.39,0,0,0-.176-.468q-.059-.117-.117-.263t-.117-.263a1.194,1.194,0,0,1-.088-.22.484.484,0,0,0-.176-.22q-.059-.117-.117-.263c-.039-.1-.078-.185-.117-.263a1.272,1.272,0,0,1-.234-.381,3.552,3.552,0,0,0-.351-.468.7.7,0,0,0-.117-.176.668.668,0,0,1-.117-.176c-.078-.078-.151-.146-.219-.2a1.682,1.682,0,0,1-.219-.234,1.707,1.707,0,0,0-.293-.351,1.461,1.461,0,0,0-.2-.176,1.381,1.381,0,0,1-.2-.176,1.5,1.5,0,0,1-.322-.293.683.683,0,0,0-.234-.161.666.666,0,0,1-.234-.161.855.855,0,0,0-.176-.146.8.8,0,0,1-.176-.146,2.828,2.828,0,0,0-.278-.117,2.51,2.51,0,0,1-.278-.117,3.915,3.915,0,0,0-.41-.234,2.323,2.323,0,0,0-.527-.234,2.682,2.682,0,0,1-.439-.2q-.293-.117-.644-.234a.5.5,0,0,0-.22-.059.487.487,0,0,1-.219-.058l-.7-.176a.474.474,0,0,0-.2-.058.665.665,0,0,1-.234-.059,1.2,1.2,0,0,0-.381-.059,1.184,1.184,0,0,1-.381-.059.957.957,0,0,1-.234-.029,1.1,1.1,0,0,0-.263-.029,3.9,3.9,0,0,0-.82-.058,1.413,1.413,0,0,0-.439-.059,4.107,4.107,0,0,0-.673-.058h-1a17.13,17.13,0,0,0-2.02.175,15.854,15.854,0,0,0-2.9.688,14.279,14.279,0,0,0-3.147,1.522,9.272,9.272,0,0,0-2.737,2.708A3.461,3.461,0,0,0,3265.485,589.951Zm2.488,4.684a7.185,7.185,0,0,0,.176,1.493,6.113,6.113,0,0,0,.717,1.756,7.607,7.607,0,0,0,1.537,1.829,10.189,10.189,0,0,0,2.605,1.625l3.6,1.434q2.049.79,3.908,1.566a16.077,16.077,0,0,1,3.235,1.771,8.83,8.83,0,0,1,2.239,2.313,6,6,0,0,1,.922,3.161v.351a9.308,9.308,0,0,1-.469,3.015l-.176.644a8.215,8.215,0,0,0-.512,1.873,2.24,2.24,0,0,0,.132,1.493.7.7,0,0,0,.5.234,1.609,1.609,0,0,0,.82-.293,4.73,4.73,0,0,0,.864-.659,7.984,7.984,0,0,0,1.01-1.215,9.4,9.4,0,0,0,1.083-3.22.653.653,0,0,0,.059-.293,1.336,1.336,0,0,0,.059-.5,1.222,1.222,0,0,0,.058-.468.812.812,0,0,1,.059-.351v-.907a9.494,9.494,0,0,0-1.083-4.728,10.473,10.473,0,0,0-2.8-3.22,17.136,17.136,0,0,0-3.776-2.166q-2.064-.863-4.025-1.508-.469-.176-.893-.366a5.14,5.14,0,0,0-.922-.307c-.039-.039-.069-.059-.088-.059s-.049-.019-.088-.059a.894.894,0,0,1-.351-.117.522.522,0,0,0-.146-.058.793.793,0,0,1-.176-.059.523.523,0,0,0-.146-.059.5.5,0,0,1-.146-.059.523.523,0,0,0-.146-.058.5.5,0,0,1-.146-.059c-.156-.078-.234-.127-.234-.146l-.351-.176a.441.441,0,0,1-.264-.117,1.014,1.014,0,0,1-.292-.117.34.34,0,0,0-.234-.117.47.47,0,0,0-.117-.088.442.442,0,0,1-.117-.088l-.234-.117a.4.4,0,0,0-.132-.088.379.379,0,0,1-.132-.088l-.176-.176a.726.726,0,0,1-.234-.2c-.039,0-.1-.039-.176-.117l-.176-.176-.176-.176c-.039-.039-.059-.068-.059-.088s-.029-.048-.088-.088a.9.9,0,0,1-.176-.234.121.121,0,0,0-.029-.088.168.168,0,0,1-.029-.117c-.078-.078-.117-.136-.117-.176l-.117-.234a.121.121,0,0,0-.029-.088.23.23,0,0,1-.029-.146.121.121,0,0,0-.029-.088.118.118,0,0,1-.029-.088.341.341,0,0,0-.059-.234v-.263a.122.122,0,0,0-.029-.088.118.118,0,0,1-.029-.088V594.2a13.661,13.661,0,0,0,.088-1.434,2.787,2.787,0,0,0-.439-1.844.622.622,0,0,0-.439-.263h-.059a2.344,2.344,0,0,0-1.859,1.112A4.939,4.939,0,0,0,3267.973,594.635Zm.176,20.257a5.428,5.428,0,0,0,.512,1.01,6.334,6.334,0,0,0,1.405,1.581,10.442,10.442,0,0,0,2.43,1.478,8.769,8.769,0,0,0,3.644.673v0q4.918,0,7.611-1.932a3.856,3.856,0,0,0,1.346-1.7,3.07,3.07,0,0,0,.293-1.2,1.179,1.179,0,0,0-.088-.468q-.059-.468-.732-.468a3.7,3.7,0,0,0-.951.2,6.463,6.463,0,0,0-1.683.937.777.777,0,0,1-.263.175.785.785,0,0,0-.263.176.239.239,0,0,1-.176.059,5.6,5.6,0,0,1-2.166.79h-.059a.655.655,0,0,0-.205.029.757.757,0,0,1-.234.029h-.176a.413.413,0,0,0-.176.029.257.257,0,0,1-.117.029h-1.025a3.716,3.716,0,0,1-.468-.029,3.85,3.85,0,0,0-.469-.029.911.911,0,0,0-.381-.058h-.117a.654.654,0,0,0-.293-.059.118.118,0,0,1-.088-.029.234.234,0,0,0-.146-.029.237.237,0,0,1-.176-.059.856.856,0,0,1-.322-.058.117.117,0,0,1-.088-.029.121.121,0,0,0-.088-.029.229.229,0,0,1-.146-.029.236.236,0,0,0-.146-.029.456.456,0,0,0-.088-.073.394.394,0,0,1-.088-.073.335.335,0,0,1-.234-.117.118.118,0,0,1-.088-.029.172.172,0,0,0-.117-.029.648.648,0,0,1-.146-.088.723.723,0,0,0-.146-.088.166.166,0,0,1-.117-.059.649.649,0,0,1-.146-.088.719.719,0,0,0-.146-.088l-.117-.117a.322.322,0,0,0-.117-.146.433.433,0,0,1-.117-.088c-.078-.078-.117-.136-.117-.176a.7.7,0,0,0-.132-.1.375.375,0,0,1-.132-.161c0-.039-.039-.1-.117-.176a.431.431,0,0,1-.088-.117.477.477,0,0,0-.088-.117.264.264,0,0,0-.029-.117.258.258,0,0,1-.029-.117.729.729,0,0,0-.088-.146.645.645,0,0,1-.088-.146.365.365,0,0,0-.029-.132.518.518,0,0,1-.029-.19.167.167,0,0,1-.059-.117.45.45,0,0,0-.059-.176.466.466,0,0,0-.058-.293.418.418,0,0,0-.029-.176.4.4,0,0,1-.029-.176v-.38a.413.413,0,0,0-.029-.176.407.407,0,0,1-.029-.176Z" transform="translate(-3073.427 -583.16)"/><path class="g" d="M3835.186,603.3a20.192,20.192,0,0,1,.82-5.8,20.585,20.585,0,0,1,2.313-5.123,21.159,21.159,0,0,1,3.527-4.259,18.1,18.1,0,0,1,4.552-3.088h.059a.337.337,0,0,1,.234-.117,2.265,2.265,0,0,1,.556-.234l.2-.1.205-.1.556-.176a3.3,3.3,0,0,1,.41-.176,1.933,1.933,0,0,1,.468-.117q.351-.117.5-.176a.521.521,0,0,1,.234-.059.515.515,0,0,0,.234-.059.582.582,0,0,1,.263-.059.778.778,0,0,0,.293-.058.644.644,0,0,0,.2-.029.66.66,0,0,1,.2-.029,1.87,1.87,0,0,1,.527-.117,1.144,1.144,0,0,0,.249-.029,1.167,1.167,0,0,1,.249-.029.929.929,0,0,0,.263-.044.925.925,0,0,1,.263-.044,1.921,1.921,0,0,1,.556-.058,1,1,0,0,0,.41-.059h1.025a18.531,18.531,0,0,1,6.777,1.259,20.1,20.1,0,0,1,5.928,3.6v.293l-5.211,5.357-.234.234h-.2a10.745,10.745,0,0,0-7.055-2.517,10.633,10.633,0,0,0-6.294,1.991.7.7,0,0,0-.146.088.658.658,0,0,1-.176.088l-1.054.878v.059a10.9,10.9,0,0,0-2.9,4.157v.059a1.5,1.5,0,0,0-.088.2,1.66,1.66,0,0,1-.088.2.119.119,0,0,1-.029.088.118.118,0,0,0-.029.088.988.988,0,0,0-.117.439.515.515,0,0,0-.059.234,1.025,1.025,0,0,0-.088.293,1.037,1.037,0,0,1-.088.293.8.8,0,0,1-.029.22.8.8,0,0,0-.029.22.337.337,0,0,0-.059.234,1.291,1.291,0,0,0-.059.41.232.232,0,0,1-.029.146.231.231,0,0,0-.029.146v.439a.517.517,0,0,0-.059.234v.7a12.143,12.143,0,0,0,3.337,8.416,11.224,11.224,0,0,0,3.659,2.547,10.979,10.979,0,0,0,4.449.922,11.308,11.308,0,0,0,5.854-1.668q.293-.176.6-.4t.6-.454q.058-.058.2.059l5.445,5.562v.263l-.117.059a18.913,18.913,0,0,1-12.587,4.8,17.98,17.98,0,0,1-7.523-1.6,19.948,19.948,0,0,1-6.147-4.318,20.475,20.475,0,0,1-4.171-6.381A19.974,19.974,0,0,1,3835.186,603.3Zm4.157,0a16.037,16.037,0,0,0,4.449,11.168,15.367,15.367,0,0,0,4.83,3.381,14.4,14.4,0,0,0,5.942,1.229,14.563,14.563,0,0,0,3.6-.424,14.768,14.768,0,0,0,3.4-1.361v-4.1q-.527.351-1,.615a10.976,10.976,0,0,1-6,1.669,11.167,11.167,0,0,1-4.6-.951,11.619,11.619,0,0,1-3.718-2.605,12.707,12.707,0,0,1-2.518-3.864,12.056,12.056,0,0,1-.937-4.757v-.937a1.15,1.15,0,0,1,.029-.249,1.162,1.162,0,0,0,.029-.249v-.293a.47.47,0,0,0,.059-.2.469.469,0,0,1,.059-.2v-.234a.551.551,0,0,0,.059-.249.407.407,0,0,1,.088-.249.582.582,0,0,0,.059-.263.578.578,0,0,1,.059-.263.169.169,0,0,0,.059-.117.168.168,0,0,1,.059-.117,1.131,1.131,0,0,1,.117-.439.261.261,0,0,1,.029-.117.262.262,0,0,0,.029-.117,1.664,1.664,0,0,0,.088-.2,1.487,1.487,0,0,1,.088-.2.168.168,0,0,1,.058-.117,12.367,12.367,0,0,1,2.459-3.835c.078-.078.146-.141.2-.19s.127-.112.2-.19l.059-.059,1.083-.907a1.788,1.788,0,0,0,.322-.234.168.168,0,0,0,.117-.058q.351-.234.761-.527a10.456,10.456,0,0,0,1.493-1.434,2.05,2.05,0,0,0,.249-.659.9.9,0,0,0-.1-.659,1.424,1.424,0,0,0-1.259-.673,6.371,6.371,0,0,0-1.186.2l-.922.264q-.468.235-.849.439a15.355,15.355,0,0,0-5.21,5.723A16.1,16.1,0,0,0,3839.343,603.3Zm5.269-15.4a.759.759,0,0,0,.542.542,2.993,2.993,0,0,0,.893.132,8.906,8.906,0,0,0,2.576-.439q.907-.234,1.9-.468.849-.176,1.932-.351a13.15,13.15,0,0,1,2.108-.176,13.991,13.991,0,0,1,3.805.527,13.476,13.476,0,0,1,3.366,1.434l5.123-1.025a1.028,1.028,0,0,1-.19-.117,1.13,1.13,0,0,0-.19-.117,1.27,1.27,0,0,0-.293-.234.852.852,0,0,0-.176-.146.8.8,0,0,1-.176-.146,1.739,1.739,0,0,0-.322-.263.66.66,0,0,1-.176-.117.706.706,0,0,0-.176-.117.663.663,0,0,1-.176-.117.7.7,0,0,0-.176-.117,1.338,1.338,0,0,1-.351-.234,1.7,1.7,0,0,1-.161-.088c-.029-.019-.083-.049-.161-.088a.584.584,0,0,0-.2-.146,1.494,1.494,0,0,1-.2-.088l-.351-.2-.381-.176a1.38,1.38,0,0,0-.351-.234l-.351-.176a.947.947,0,0,0-.41-.117l-.381-.176a3.328,3.328,0,0,0-.41-.176.455.455,0,0,0-.176-.058.353.353,0,0,1-.176-.088.992.992,0,0,0-.439-.117.907.907,0,0,0-.351-.117,2.5,2.5,0,0,0-.41-.117.994.994,0,0,0-.439-.117.474.474,0,0,0-.2-.059.464.464,0,0,1-.2-.059.4.4,0,0,1-.176-.029.414.414,0,0,0-.176-.029.5.5,0,0,0-.219-.059.487.487,0,0,1-.22-.059,1,1,0,0,1-.41-.059.646.646,0,0,1-.2-.029.656.656,0,0,0-.2-.029,1.816,1.816,0,0,1-.5-.058h-.351a1.782,1.782,0,0,0-.527-.059h-.322a3.891,3.891,0,0,0-.82-.058h-.483a1.986,1.986,0,0,0-.483.058h-.469a1.9,1.9,0,0,1-.556.059,1.387,1.387,0,0,0-.263.029,1.341,1.341,0,0,1-.263.029,1.1,1.1,0,0,1-.439.059.577.577,0,0,1-.264.059.581.581,0,0,0-.263.059.658.658,0,0,0-.2.029.645.645,0,0,1-.2.029,1.88,1.88,0,0,1-.556.117.942.942,0,0,1-.41.117q-.351.117-.5.176a.517.517,0,0,1-.234.059.521.521,0,0,0-.234.059,1.12,1.12,0,0,1-.234.088.66.66,0,0,0-.234.117c-.1.039-.263.1-.5.176a1.531,1.531,0,0,1-.2.088,1.634,1.634,0,0,0-.2.088,1.274,1.274,0,0,0-.468.234,1.11,1.11,0,0,0-.381.117,3.991,3.991,0,0,0-1.464,1.259,2.01,2.01,0,0,0-.469,1.112A.647.647,0,0,0,3844.612,587.9Zm17.271,5.474,4.713-4.918-.644.176-4.069.761Zm0,23.916,4.771.878-4.771-4.918Z" transform="translate(-3594.945 -583.16)"/><path class="g" d="M4254.083,630.23v-.176l9.806-38.494h.088V591.5h11.738v.058a.052.052,0,0,0,.06.059l9.857,38.493v.059l-.059.059v.059h-7.786c-.117,0-.186-.039-.205-.117l-1.867-7.582h-11.738l-1.932,7.581a.052.052,0,0,1-.059.059v.059H4254.2A.167.167,0,0,1,4254.083,630.23Zm5.057-3.967,2.693,3.5,1.844-7.519-2.635-3.284Zm2.079-8.1,4.391-3.546,4.069-16.475-2.517-2.342Zm.175.236h16.861l-4.391-3.542h-8.079l-3.776,3.069Zm3.015-26.609,2.752,3.542h5.386l2.781-3.542Zm1.562,22.774h7.771l-3.877-15.751Zm6.654-19.011,6.048,23.011,2.024,7.7,4.245,3.434-8.368-32.93-1.2-4.8Z" transform="translate(-3977.098 -590.77)"/><path class="g" d="M4678.829,630.113V591.56l.059-.058h27.165v.058h.059v7.785l-.059.06a.052.052,0,0,1-.059.059H4686.85v7.465h15.222l.088.058h.059v.058a.052.052,0,0,1,.058.058v7.7l-.058.059a.052.052,0,0,1-.059.059h-15.31v15.193a.17.17,0,0,1-.059.117l-.059.059H4679A.155.155,0,0,1,4678.829,630.113Zm.527-38.318,3.542,3.484h19.115l3.542-3.484Zm3.659,18.705,3.483-3.481V599.4l-3.483-3.592Zm0,15.748,3.483,3.542V614.861l-3.483-3.567Zm.176-15.514h14.987l3.542-3.513h-14.987Zm15.31.118,3.4,3.508v-6.9Zm3.834-15.4,3.4,3.474v-6.9Z" transform="translate(-4364.587 -590.77)"/><path class="g" d="M5063.609,630.113V591.56l.059-.058h27.165v.058h.059v7.785l-.059.06a.052.052,0,0,1-.059.059h-19.145v7.465h15.222l.088.058H5087v.058a.052.052,0,0,1,.059.058v7.7l-.059.059a.052.052,0,0,1-.058.059h-15.31v7.347h19.145a.052.052,0,0,0,.059.059v.059h.059v7.728a.168.168,0,0,1-.059.117l-.059.059h-26.989A.155.155,0,0,1,5063.609,630.113Zm.527-38.376,3.542,3.542h19.115l3.542-3.542Zm3.659,18.764,3.542-3.481V599.4l-3.542-3.592Zm0,15.4,3.542-3.532v-7.5l-3.542-3.567Zm.176-15.163h14.987l3.542-3.513h-14.987Zm0,15.368h18.822l3.542-3.542h-18.822Zm15.31-15.25,3.4,3.508v-6.9Zm3.834-15.4,3.454,3.474v-6.957Zm0,30.766,3.454,3.483v-6.967Z" transform="translate(-4715.616 -590.77)"/></g></g></g></svg>