<svg xmlns="http://www.w3.org/2000/svg" width="255.318" height="255.318" viewBox="0 0 255.318 255.318"><defs><style>.a{fill:#fcf7ed;}.b{fill:none;stroke:#fcf7ed;stroke-miterlimit:10;stroke-width:2px;}.c{fill:#bc071c;}</style></defs><g transform="translate(8.721 -948.863)"><g transform="translate(3.569 961.145)"><g transform="translate(2.989 138.198)"><path class="a" d="M10.776,1002.926l.679,2.43-12.094,3.388-.679-2.431,4.841-1.355-1.356-4.842-4.841,1.356-.676-2.411,12.094-3.388.676,2.411L4.582,999.44l1.352,4.841Z" transform="translate(3.35 -995.503)"/><path class="a" d="M10.933,1003.83a6.223,6.223,0,0,1,.052,4.828,6.6,6.6,0,0,1-3.463,3.541,6.519,6.519,0,0,1-4.949.17,6.092,6.092,0,0,1-3.584-8.128,6.507,6.507,0,0,1,3.463-3.541,6.608,6.608,0,0,1,4.949-.17A6.234,6.234,0,0,1,10.933,1003.83Zm-9.549,4.207a3.778,3.778,0,0,0,2.153,2,3.962,3.962,0,0,0,2.983-.1,4.064,4.064,0,0,0,2.11-2.14,3.851,3.851,0,0,0-.039-2.927,3.7,3.7,0,0,0-2.127-1.986,3.978,3.978,0,0,0-3.009.095,3.916,3.916,0,0,0-2.087,2.149A3.654,3.654,0,0,0,1.384,1008.037Z" transform="translate(7.57 -985.401)"/><path class="a" d="M6.877,1020.7l-1.346-2.13,6.939-4.711-8.278,2.594-1.346-2.13,5.893-6.367-7.233,4.247-1.346-2.13,10.983-6.119,1.637,2.594-6.311,6.975,9-2.728,1.65,2.607Z" transform="translate(11.309 -976.725)"/><path class="a" d="M16.6,1016.244l-4.07-4.8-1.924,1.634,3.254,3.832-1.911,1.62L8.69,1014.7l-1.924,1.63,4.07,4.8-1.911,1.62-5.691-6.707,9.578-8.128,5.691,6.707Z" transform="translate(18.274 -967.749)"/><path class="a" d="M14.994,1025.767a6.1,6.1,0,0,1-6.452-5.6,6.655,6.655,0,0,1,5.743-7.18,6.2,6.2,0,0,1,4.642,1.277,6.135,6.135,0,0,1,2.231,3.793l-2.532.314a3.6,3.6,0,0,0-1.3-2.107,3.706,3.706,0,0,0-2.806-.777,4.071,4.071,0,0,0-2.607,1.493,3.952,3.952,0,0,0-.866,2.855,3.628,3.628,0,0,0,1.362,2.581,3.56,3.56,0,0,0,2.326.817Z" transform="translate(30.234 -956.37)"/><path class="a" d="M21.666,1016.167a6.225,6.225,0,0,1,2.836,3.914,6.606,6.606,0,0,1-.781,4.894,6.528,6.528,0,0,1-3.943,3,6.1,6.1,0,0,1-7.625-4.567,6.646,6.646,0,0,1,4.724-7.889A6.241,6.241,0,0,1,21.666,1016.167Zm-5.364,8.954a3.786,3.786,0,0,0,2.914.392,4,4,0,0,0,2.372-1.816,4.067,4.067,0,0,0,.49-2.963,3.85,3.85,0,0,0-1.728-2.368,3.709,3.709,0,0,0-2.885-.4,4,4,0,0,0-2.4,1.82,3.91,3.91,0,0,0-.457,2.96A3.635,3.635,0,0,0,16.3,1025.121Z" transform="translate(38.09 -951.001)"/><path class="a" d="M25.226,1017.985a6.236,6.236,0,0,1,3.388,3.446,6.6,6.6,0,0,1-.046,4.952,6.524,6.524,0,0,1-3.453,3.554,6.1,6.1,0,0,1-8.216-3.378,6.528,6.528,0,0,1,.039-4.956,6.614,6.614,0,0,1,3.456-3.554A6.236,6.236,0,0,1,25.226,1017.985Zm-3.969,9.653a3.8,3.8,0,0,0,2.937-.052,3.983,3.983,0,0,0,2.078-2.146,4.054,4.054,0,0,0,.039-3.005,3.871,3.871,0,0,0-2.058-2.084,3.7,3.7,0,0,0-2.911.042,4.018,4.018,0,0,0-2.107,2.156,3.908,3.908,0,0,0-.01,2.992A3.634,3.634,0,0,0,21.256,1027.638Z" transform="translate(48.185 -945.959)"/><path class="a" d="M27.331,1026.061l2.675,7.216-3.045-.791-2.225-6.56-1.46,5.6-2.444-.634L24,1018.733l2.444.637-1.45,5.583,5.116-4.629,3.045.791Z" transform="translate(58.167 -943.231)"/><path class="a" d="M29.511,1020.029l-2,12.384-2.489-.4,2-12.385Z" transform="translate(67.663 -941.205)"/><path class="a" d="M28.237,1019.949l2.5.141,4.58,8.1.441-7.817,2.525.144-.712,12.544-2.522-.141-4.577-8.137-.444,7.854-2.5-.144Z" transform="translate(73.35 -940.475)"/><path class="a" d="M40.713,1025.787l2.5-.2.366,4.6a5.966,5.966,0,0,1-4.822,2.7,6.165,6.165,0,0,1-4.583-1.565,6.5,6.5,0,0,1-2.2-4.433,6.576,6.576,0,0,1,1.47-4.73,6.138,6.138,0,0,1,8.69-.853l-1.614,1.94a3.769,3.769,0,0,0-2.594-.787,3.693,3.693,0,0,0-2.577,1.359,4,4,0,0,0,.441,5.55,3.652,3.652,0,0,0,2.76.944,3.471,3.471,0,0,0,2.46-.9Z" transform="translate(83.356 -940.593)"/><path class="a" d="M47.119,1030.534l-1.294-2.231-3.767,1.1.1,2.577-2.4.7-.441-12.959,3.616-1.052,6.612,11.159Zm-5.171-3.731,2.574-.748-2.731-4.586Z" transform="translate(100.069 -943.376)"/><path class="a" d="M41.827,1020.554l8.128-3.365.957,2.313L48,1020.711,51.853,1030l-2.313.96-3.848-9.3-2.907,1.205Z" transform="translate(105.756 -946.731)"/><path class="a" d="M49.42,1015.181l6.609,10.672-2.143,1.33-6.612-10.676Z" transform="translate(118.103 -951.283)"/><path class="a" d="M48.944,1018.222l7-5.305,1.509,1.993-2.5,1.9,6.066,8-1.993,1.51-6.07-8-2.5,1.9Z" transform="translate(121.889 -956.415)"/><path class="a" d="M55.033,1016.089c.483.5,1.225.3,2.127-.078.441-.18.941-.389,1.441-.624a5.121,5.121,0,0,1,3.149-.467,3.138,3.138,0,0,1,1.532.954,3.555,3.555,0,0,1,1.107,2.584,4.262,4.262,0,0,1-.689,2.143,5.526,5.526,0,0,1-.875,1.1,4.973,4.973,0,0,1-2.679,1.493,3.23,3.23,0,0,1-2.009-.363,5,5,0,0,1-1.215-.931l1.823-1.741a1.419,1.419,0,0,0,1.317.536,2.533,2.533,0,0,0,1.153-.647,2.391,2.391,0,0,0,.764-1.081,1.109,1.109,0,0,0-.278-1.13c-.483-.5-1.251-.33-2.153.049-.444.18-.928.405-1.441.627a4.959,4.959,0,0,1-3.136.48,2.94,2.94,0,0,1-1.532-.928,3.646,3.646,0,0,1-1.15-2.6,3.946,3.946,0,0,1,.65-2.068,6.039,6.039,0,0,1,.885-1.091,4.224,4.224,0,0,1,3.241-1.441,4.116,4.116,0,0,1,2.163.967l-1.578,1.8a1.386,1.386,0,0,0-1.2-.3,2.436,2.436,0,0,0-1.042.65C54.722,1014.645,54.333,1015.361,55.033,1016.089Z" transform="translate(129.468 -961.086)"/><path class="a" d="M64.8,1009.208a2.906,2.906,0,0,1,3.319.34,3.7,3.7,0,0,1,1.859,2.911,4.108,4.108,0,0,1-.882,2.43l-3.005,4.2-10.225-7.321,2.6-3.633a5.035,5.035,0,0,1,.856-.967,3.333,3.333,0,0,1,1.718-.826,3.773,3.773,0,0,1,2.542.82A2.788,2.788,0,0,1,64.8,1009.208Zm-5.629,1.849,2.248,1.6,1.268-1.767a1.333,1.333,0,0,0,.284-.7c.033-.314-.144-.7-.709-1.111a1.319,1.319,0,0,0-1.264-.307,1.486,1.486,0,0,0-.559.51Zm6.338,4.538,1.548-2.166a1.224,1.224,0,0,0-.431-1.865c-.934-.667-1.575-.336-1.937.167l-1.552,2.166Z" transform="translate(137.575 -971.333)"/><path class="a" d="M64.432,1003.729l-3.022,5.521,2.218,1.212,2.414-4.417,2.2,1.205-2.414,4.413,2.215,1.212,3.022-5.524,2.2,1.2-4.224,7.723-11.029-6.027,4.224-7.726Z" transform="translate(142.439 -979.976)"/><path class="a" d="M63.139,1005.2c.647.258,1.245-.232,1.908-.947.33-.35.7-.745,1.052-1.166a5.178,5.178,0,0,1,2.679-1.725,3.142,3.142,0,0,1,1.787.238,3.529,3.529,0,0,1,2.078,1.9,4.191,4.191,0,0,1,.252,2.231,5.426,5.426,0,0,1-.34,1.365,4.943,4.943,0,0,1-1.826,2.466,3.223,3.223,0,0,1-1.976.5,4.964,4.964,0,0,1-1.49-.35l.938-2.339a1.417,1.417,0,0,0,1.421-.055,2.514,2.514,0,0,0,.787-1.065,2.412,2.412,0,0,0,.248-1.3,1.111,1.111,0,0,0-.719-.915c-.647-.258-1.277.216-1.944.934-.327.346-.676.748-1.052,1.163a4.971,4.971,0,0,1-2.659,1.735,2.953,2.953,0,0,1-1.774-.212,3.637,3.637,0,0,1-2.123-1.9,3.954,3.954,0,0,1-.265-2.153,5.941,5.941,0,0,1,.359-1.362,4.222,4.222,0,0,1,2.359-2.646,4.123,4.123,0,0,1,2.365-.013l-.689,2.3a1.38,1.38,0,0,0-1.219.219,2.488,2.488,0,0,0-.683,1.019C62.26,1004.013,62.2,1004.826,63.139,1005.2Z" transform="translate(147.121 -987)"/><path class="a" d="M61.041,1004.112l2.3-8.49,2.417.657-.823,3.035,9.706,2.636-.653,2.417-9.706-2.636-.826,3.038Z" transform="translate(149.31 -995.621)"/></g><path class="a" d="M-4.111,988.881l.052-2.522,12.544.258-.052,2.522-5.021-.1-.1,5.021,5.024.1-.052,2.505L-4.265,996.4l.049-2.5,5.021.1.108-5.021Z" transform="translate(4.265 -878.418)"/><path class="a" d="M9.127,984.913l-2.564.252-.575,3.874,2.385.98L8,992.495l-11.947-5,.552-3.724L9.5,982.42Zm-5.544,3.143.392-2.646-5.3.568Z" transform="translate(4.995 -887.347)"/><path class="a" d="M-1.413,980.277l.653-2.417,11.287,6.38-.99,3.659-12.963-.2.653-2.417,10.421.154Z" transform="translate(6.169 -897.683)"/><path class="a" d="M3.527,974.974l-2.391,5.815,2.332.96L5.379,977.1l2.313.951L5.781,982.7l2.332.96,2.395-5.818,2.313.954-3.342,8.131-11.61-4.773,3.342-8.134Z" transform="translate(9.102 -906.388)"/><path class="a" d="M.742,976.295,2.121,974.2l9.307.124L4.9,970.006,6.292,967.9l10.483,6.935-1.395,2.107-9.336-.147,6.56,4.342-1.379,2.091Z" transform="translate(15.615 -920.263)"/><path class="a" d="M5.614,966.653a6.235,6.235,0,0,1,4.371-2.074,6.617,6.617,0,0,1,4.671,1.666,6.525,6.525,0,0,1,2.228,4.43,6.106,6.106,0,0,1-5.89,6.664,6.518,6.518,0,0,1-4.671-1.663A6.6,6.6,0,0,1,4.1,971.243,6.238,6.238,0,0,1,5.614,966.653Zm7.83,6.916a3.782,3.782,0,0,0,.915-2.793,3.981,3.981,0,0,0-1.349-2.669,4.058,4.058,0,0,0-2.826-1.022,3.851,3.851,0,0,0-2.649,1.264,3.7,3.7,0,0,0-.915,2.767,3.986,3.986,0,0,0,1.349,2.7,3.908,3.908,0,0,0,2.826,1A3.647,3.647,0,0,0,13.445,973.569Z" transform="translate(23.179 -927.804)"/><path class="a" d="M15.32,969.386l3.022,4.015-2,1.5L8.8,964.875l7.024-5.282,1.506,2-5.024,3.78,1.516,2.012,4.015-3.019,1.506,2Z" transform="translate(33.871 -939.093)"/><path class="a" d="M21.047,959.584,15.6,962.75l1.271,2.182,4.351-2.532,1.258,2.166L18.133,967.1l1.271,2.182,5.442-3.166,1.261,2.166L18.5,972.71l-6.324-10.868,7.612-4.427Z" transform="translate(41.529 -944.028)"/><path class="a" d="M25.719,967.2l-1.558-2.062-3.6,1.542.415,2.545-2.306.987L16.68,957.411l3.463-1.48,7.9,10.281Zm-5.58-3.084,2.463-1.052-3.26-4.221Z" transform="translate(51.743 -947.392)"/><path class="a" d="M29.623,966.466l-3.616-3.322-1.3.376,1.15,4.025-2.4.686L20,956.172l4.828-1.382a4.127,4.127,0,0,1,2.463,0,4.019,4.019,0,0,1,2.3,2.973,5.054,5.054,0,0,1,.111,2.793,3.021,3.021,0,0,1-1.088,1.558l4.028,3.489Zm-6.53-8.579.924,3.228,2.421-.7c.693-.2,1.094-.758.751-1.97-.343-1.192-.983-1.454-1.673-1.258Z" transform="translate(59.266 -950.41)"/><path class="a" d="M31.523,953.317l8.781.428-.121,2.5-3.143-.154-.487,10.042-2.5-.121.49-10.042-3.139-.154Z" transform="translate(85.114 -953.317)"/><path class="a" d="M45.375,957.55l-6.2-1.049-.421,2.489,4.959.84-.418,2.466-4.959-.836-.418,2.486,6.2,1.052-.418,2.466L35.026,966l2.094-12.385,8.673,1.467Z" transform="translate(93.329 -952.646)"/><path class="a" d="M44.949,968.308l-1.251-4.75-1.3-.4L41.2,967.181l-2.4-.722,3.613-12.028,4.812,1.447a4.143,4.143,0,0,1,2.074,1.33,4,4,0,0,1,.336,3.75,5.087,5.087,0,0,1-1.415,2.414,3.111,3.111,0,0,1-1.761.729l1.506,5.113Zm-.866-10.758-.964,3.215,2.417.729c.689.206,1.33-.049,1.692-1.258.359-1.189-.039-1.754-.725-1.96Z" transform="translate(101.87 -950.792)"/><path class="a" d="M48.4,969.885l-.644-4.874-1.241-.552-1.7,3.835-2.287-1.019L47.62,955.8l4.6,2.042a4.173,4.173,0,0,1,1.888,1.581,4.011,4.011,0,0,1-.14,3.763,5.037,5.037,0,0,1-1.709,2.215,3.1,3.1,0,0,1-1.836.5l.849,5.259Zm.493-10.783-1.362,3.071,2.306,1.022c.657.291,1.326.124,1.842-1.032.5-1.137.176-1.744-.48-2.038Z" transform="translate(110.332 -947.7)"/><path class="a" d="M56.806,961.809l2.4,1.428-7.687,4.2-2.571,4.325-2.169-1.287,2.568-4.328.01-8.758,2.4,1.427-.18,6.04Z" transform="translate(119.982 -944.094)"/><path class="a" d="M51.026,963.347a9.221,9.221,0,0,1,1.019-1.921c.255-.415.585-.892,1-1.457l1.359,1a19.284,19.284,0,0,1-1.921,2.293c-.265.268-.493.48-.693.65Z" transform="translate(129.597 -938.238)"/><path class="a" d="M57.727,964.321c-.461.53-.189,1.251.271,2.11.222.425.477.905.758,1.379a5.171,5.171,0,0,1,.755,3.1,3.108,3.108,0,0,1-.807,1.61,3.56,3.56,0,0,1-2.476,1.346,4.254,4.254,0,0,1-2.192-.493,5.457,5.457,0,0,1-1.183-.768,4.951,4.951,0,0,1-1.735-2.529,3.212,3.212,0,0,1,.173-2.035,4.954,4.954,0,0,1,.817-1.3l1.9,1.653a1.413,1.413,0,0,0-.412,1.362,2.526,2.526,0,0,0,.748,1.088,2.363,2.363,0,0,0,1.15.663,1.116,1.116,0,0,0,1.1-.382c.454-.526.209-1.28-.248-2.139-.225-.425-.49-.889-.761-1.375a4.957,4.957,0,0,1-.768-3.084,2.915,2.915,0,0,1,.781-1.611,3.646,3.646,0,0,1,2.486-1.385,3.955,3.955,0,0,1,2.123.454,6.055,6.055,0,0,1,1.17.784,4.218,4.218,0,0,1,1.731,3.1,4.09,4.09,0,0,1-.761,2.238l-1.944-1.4a1.361,1.361,0,0,0,.186-1.225,2.445,2.445,0,0,0-.742-.977C59.135,963.876,58.387,963.556,57.727,964.321Z" transform="translate(129.603 -934.727)"/><path class="a" d="M66.213,967.658l-9.64,8.062-1.62-1.937,9.644-8.062Z" transform="translate(138.497 -925.2)"/><path class="a" d="M64.44,970.627c-.572.4-.493,1.169-.265,2.12.111.464.238.99.392,1.522a5.143,5.143,0,0,1-.046,3.191,3.175,3.175,0,0,1-1.186,1.359,3.557,3.557,0,0,1-2.738.683,4.289,4.289,0,0,1-2.006-1.026,5.619,5.619,0,0,1-.954-1.042,4.942,4.942,0,0,1-1.042-2.891,3.214,3.214,0,0,1,.676-1.924,4.876,4.876,0,0,1,1.117-1.055l1.431,2.081a1.424,1.424,0,0,0-.742,1.219,2.521,2.521,0,0,0,.454,1.245,2.431,2.431,0,0,0,.947.928,1.117,1.117,0,0,0,1.163-.092c.575-.4.526-1.189.3-2.143-.111-.464-.252-.98-.389-1.522a4.965,4.965,0,0,1,.023-3.178,2.959,2.959,0,0,1,1.163-1.366,3.659,3.659,0,0,1,2.76-.722,3.992,3.992,0,0,1,1.94.974,6.116,6.116,0,0,1,.941,1.052,4.248,4.248,0,0,1,.9,3.437,4.082,4.082,0,0,1-1.3,1.983l-1.529-1.849a1.361,1.361,0,0,0,.487-1.137,2.458,2.458,0,0,0-.474-1.136C65.924,970.555,65.273,970.055,64.44,970.627Z" transform="translate(142.222 -920.113)"/><path class="a" d="M73.815,980.093l1.006,2.313-11.512,5L62.3,985.091l4.609-2-2-4.609-4.606,2-1-2.3,11.515-5,1,2.3-4.609,2,2,4.61Z" transform="translate(148.362 -908.276)"/><path class="a" d="M73.005,986.783l-1.728-6.037-2.424.689,1.382,4.832-2.4.686-1.382-4.828-2.424.693,1.731,6.04-2.408.689L60.931,981.1l12.061-3.453,2.421,8.445Z" transform="translate(152.05 -898.162)"/><path class="a" d="M62.891,990.09l3.76-3.169-.206-1.343-4.146.637-.382-2.476,12.417-1.9.764,4.969a4.137,4.137,0,0,1-.314,2.444,4,4,0,0,1-3.241,1.911,5.062,5.062,0,0,1-2.79-.239,3.055,3.055,0,0,1-1.411-1.277L63.371,993.2Zm9.35-5.4-3.319.506.379,2.5c.111.712.617,1.182,1.862.99,1.228-.186,1.568-.791,1.46-1.5Z" transform="translate(154.285 -888.666)"/><path class="a" d="M72.759,995.042l-.2-6.282-2.519.078.154,5.021-2.5.079-.154-5.024-2.519.078.189,6.285-2.5.075-.271-8.784,12.548-.385.271,8.784Z" transform="translate(155.477 -878.82)"/></g><circle class="b" cx="126.659" cy="126.659" r="126.659" transform="translate(-7.721 949.863)"/><circle class="b" cx="91.782" cy="91.782" r="91.782" transform="translate(27.156 984.74)"/><circle class="c" cx="1.836" cy="1.836" r="1.836" transform="translate(104.311 967.047)"/><circle class="c" cx="1.836" cy="1.836" r="1.836" transform="translate(8.081 1088.422)"/><circle class="c" cx="1.836" cy="1.836" r="1.836" transform="translate(226.123 1088.422)"/></g></svg>