<svg xmlns="http://www.w3.org/2000/svg" width="33.312" height="19.738" viewBox="0 0 33.312 19.738"><defs><style>.a{fill:#fcf7ed;}</style></defs><g transform="translate(6.904 -39.082)"><g transform="translate(-6.904 39.082)"><path class="a" d="M20.414,20.391a17.859,17.859,0,0,1,2.74.641A18.749,18.749,0,0,1,27.6,23.059a.681.681,0,0,0,.341.1c1.637.007,3.274,0,4.909.006.132,0,.263.014.394.021,0,.032,0,.046,0,.053-.076.118-.154.234-.23.351a10.042,10.042,0,0,0-1.31,2.727.314.314,0,0,0,.035.3,8.349,8.349,0,0,1-6.8,13.206,7.752,7.752,0,0,1-1.993-.256,8.357,8.357,0,0,1-4.091-2.414c-.149-.158-.289-.323-.447-.5-.6.889-1.183,1.762-1.784,2.659l-1.754-2.622a.446.446,0,0,0-.059.031.272.272,0,0,0-.035.036A8.269,8.269,0,0,1,9.606,39.68a8.077,8.077,0,0,1-3.443-.193A8.358,8.358,0,0,1,.111,32.718a8.061,8.061,0,0,1,.15-3.3,8.387,8.387,0,0,1,1.3-2.82.325.325,0,0,0,.037-.242,9.32,9.32,0,0,0-1.17-2.516c-.126-.2-.278-.386-.418-.578V23.2a.709.709,0,0,0,.083.009q2.512,0,5.025,0a.425.425,0,0,0,.216-.07,18.047,18.047,0,0,1,3.748-1.819,20.368,20.368,0,0,1,2.909-.788,23.305,23.305,0,0,1,2.894-.38A24.549,24.549,0,0,1,20.414,20.391Zm-2.1,11.062a6.648,6.648,0,1,0,6.506-6.622A6.658,6.658,0,0,0,18.314,31.453ZM8.34,24.806A6.64,6.64,0,1,0,15,31.474,6.648,6.648,0,0,0,8.34,24.806Zm.33-1.735a8.482,8.482,0,0,1,7.989,7.248,8.451,8.451,0,0,1,7.861-7.21,18.909,18.909,0,0,0-7.407-1.543A20.51,20.51,0,0,0,8.67,23.071Z" transform="translate(0 -20.082)"/><path class="a" d="M65.736,41.31a4.118,4.118,0,1,1-4.128,4.114A4.1,4.1,0,0,1,65.736,41.31Zm2.685,4.114a2.692,2.692,0,0,0-5.384-.011,2.692,2.692,0,1,0,5.384.011Z" transform="translate(-40.787 -34.135)"/><path class="a" d="M16.322,41.31a4.118,4.118,0,1,1-4.132,4.11A4.1,4.1,0,0,1,16.322,41.31ZM19,45.415a2.693,2.693,0,0,0-5.387.008A2.693,2.693,0,1,0,19,45.415Z" transform="translate(-8.07 -34.135)"/><path class="a" d="M71.149,49.443a1.365,1.365,0,1,1-1.368,1.378A1.365,1.365,0,0,1,71.149,49.443Z" transform="translate(-46.198 -39.52)"/><path class="a" d="M21.7,49.407a1.377,1.377,0,1,1,0,2.755,1.377,1.377,0,1,1,0-2.755Z" transform="translate(-13.453 -39.496)"/></g></g></svg>