<svg xmlns="http://www.w3.org/2000/svg" width="19.698" height="16" viewBox="0 0 19.698 16"><defs><style>.a{fill:#fcf7ed;}</style></defs><g transform="translate(-0.001 -57.441)"><g transform="translate(0.001 57.441)"><path class="a" d="M19.7,59.334a8.069,8.069,0,0,1-2.32.636,4.058,4.058,0,0,0,1.776-2.234,8.146,8.146,0,0,1-2.568.981A4.044,4.044,0,0,0,9.7,62.4a11.472,11.472,0,0,1-8.328-4.222,4.045,4.045,0,0,0,1.251,5.394,4.041,4.041,0,0,1-1.83-.507v.05a4.045,4.045,0,0,0,3.241,3.962,4.093,4.093,0,0,1-1.065.142,3.878,3.878,0,0,1-.761-.075,4.043,4.043,0,0,0,3.774,2.806A8.107,8.107,0,0,1,.965,71.678,8.588,8.588,0,0,1,0,71.623a11.422,11.422,0,0,0,6.194,1.818,11.417,11.417,0,0,0,11.5-11.5l-.014-.523A8.069,8.069,0,0,0,19.7,59.334Z" transform="translate(-0.001 -57.441)"/></g></g></svg>