<svg xmlns="http://www.w3.org/2000/svg" width="22.444" height="15.714" viewBox="0 0 22.444 15.714"><defs><style>.a{fill:#fff;}</style></defs><g transform="translate(560.001 -76.758)"><path class="a" d="M-538.02,79.217A2.812,2.812,0,0,0-540,77.239c-1.756-.481-8.781-.481-8.781-.481s-7.025,0-8.781.462a2.869,2.869,0,0,0-1.978,2,29.629,29.629,0,0,0-.462,5.4,29.52,29.52,0,0,0,.462,5.4,2.812,2.812,0,0,0,1.978,1.978c1.775.481,8.781.481,8.781.481s7.025,0,8.781-.462a2.812,2.812,0,0,0,1.978-1.978,29.63,29.63,0,0,0,.462-5.4A28.123,28.123,0,0,0-538.02,79.217Zm-13,8.763V81.25l5.842,3.365Z"/></g></svg>