<?xml version="1.0" standalone="no"?>
<!DOCTYPE svg PUBLIC "-//W3C//DTD SVG 1.1//EN" "http://www.w3.org/Graphics/SVG/1.1/DTD/svg11.dtd" >
<svg xmlns="http://www.w3.org/2000/svg" xmlns:xlink="http://www.w3.org/1999/xlink" version="1.1">
<metadata></metadata>
<defs>
<font id="turn_rightdisplay" horiz-adv-x="1280" >
<font-face units-per-em="2048" ascent="1536" descent="-512" />
<missing-glyph horiz-adv-x="593" />
<glyph horiz-adv-x="0" />
<glyph horiz-adv-x="682" />
<glyph unicode="&#xd;" horiz-adv-x="593" />
<glyph unicode=" "  horiz-adv-x="593" />
<glyph unicode="&#x09;" horiz-adv-x="593" />
<glyph unicode="&#xa0;" horiz-adv-x="593" />
<glyph unicode="!" horiz-adv-x="512" d="M123 109q0 -56 39 -95t94 -39t94 39t39 95q0 54 -39 92.5t-94 38.5t-94 -38.5t-39 -92.5zM123 1194q0 -151 6 -295q9 -284 29 -516h198q3 35 5.5 77t6 95t5.5 84q16 312 16 555v131h-266v-131z" />
<glyph unicode="&#x22;" horiz-adv-x="747" d="M123 1325q0 -109 6 -186q9 -151 33 -228h100q12 55 19 99q20 136 20 315h-178zM446 1325q0 -97 7 -186q9 -155 32 -228h101q9 41 18 99q21 143 21 315h-179z" />
<glyph unicode="#" horiz-adv-x="1488" d="M123 383h264l-98 -383h151l99 383h266l-100 -383h153l98 383h267l37 147h-265l68 265h266l37 147h-264l98 383h-151l-99 -383h-266l100 383h-153l-99 -383h-266l-37 -147h265l-68 -265h-266zM578 530l69 265h264l-69 -265h-264z" />
<glyph unicode="$" horiz-adv-x="1130" d="M102 391q0 -129 60 -223q90 -145 330 -166v-121h147v121q147 13 246 82q143 98 143 303q0 113 -47 184q-86 126 -274 195q-49 16 -156 57q-83 32 -125.5 65.5t-42.5 84.5q0 133 182 133q80 0 127 -27q59 -34 70 -110l250 22q-16 129 -80 205q-95 108 -293 127v117h-147 v-117q-149 -14 -238 -78q-137 -99 -137 -307q0 -112 49 -182q86 -128 274 -193q142 -52 156 -57q82 -32 125 -66.5t43 -85.5q0 -69 -62 -108q-49 -31 -137 -27q-89 4 -135 37q-61 41 -61 135h-267z" />
<glyph unicode="%" horiz-adv-x="1476" d="M123 1063q0 -119 84 -203t203 -84q118 0 202 84t84 203t-84 203t-202 84q-119 0 -203 -84t-84 -203zM197 0h151l932 1325h-154zM270 1063q0 60 40 99.5t100 39.5t99.5 -39.5t39.5 -99.5t-39.5 -99.5t-99.5 -39.5t-100 39.5t-40 99.5zM778 262q0 -119 84 -203t203 -84 q121 0 205 84t84 203t-84 203t-205 84q-119 0 -203 -84t-84 -203zM926 262q0 59 40.5 99t98.5 40q60 0 100.5 -39.5t40.5 -99.5t-40.5 -99.5t-100.5 -39.5q-58 0 -98.5 40t-40.5 99z" />
<glyph unicode="&#x26;" horiz-adv-x="1497" d="M147 238q49 -121 170 -193q118 -70 269 -70q225 0 362 158l156 -133h291q-130 132 -328 315q36 67 61 127q24 56 58 111q34 52 68.5 79t80.5 27v236q-106 0 -174 -41q-123 -75 -190 -242q-10 -21 -31.5 -72.5t-34.5 -78.5q-234 207 -303 282q-119 125 -119 205 q0 75 48.5 124.5t130.5 49.5q56 0 88 -34.5t32 -79.5q0 -35 -22 -66q-52 -68 -129 -117q16 -24 33 -41q25 -29 86 -86q125 69 185 153t60 198q0 123 -94 211q-100 90 -268 90t-285 -107q-112 -103 -112 -264q0 -133 106 -274q-130 -88 -186 -213q-60 -132 -9 -254zM385 328 q-41 95 94 223q124 -124 299 -272q-77 -64 -190 -64q-154 0 -203 113z" />
<glyph unicode="'" horiz-adv-x="423" d="M123 1325q0 -109 6 -186q9 -151 33 -228h100q12 55 19 99q20 136 20 315h-178z" />
<glyph unicode="(" horiz-adv-x="776" d="M125 664q0 -251 88.5 -491t257.5 -435l182 156q-140 163 -213 363t-73 409q-2 209 68.5 408t209.5 362l-182 155q-168 -198 -254 -437.5t-84 -489.5z" />
<glyph unicode=")" horiz-adv-x="774" d="M123 -106l182 -156q169 195 256.5 434.5t89.5 491.5q0 250 -86 489.5t-254 437.5l-182 -155q139 -163 211 -362t72 -408q-2 -209 -75.5 -409t-213.5 -363z" />
<glyph unicode="*" horiz-adv-x="815" d="M102 1075l187 -59l-115 -156l119 -88l115 158l114 -158l119 86l-113 158l185 59l-47 142l-185 -62v195h-147v-195l-184 62z" />
<glyph unicode="+" horiz-adv-x="1189" d="M123 543h350v-353h242v353h352v239h-352v353h-242v-353h-350v-239z" />
<glyph unicode="," horiz-adv-x="501" d="M123 117q0 -38 24 -65t54 -36q-2 -23 -29 -79l-43 -74l51 -37q23 20 68 65q55 55 108 142q1 5 5.5 14t5.5 12q12 28 12 50q0 54 -38.5 92.5t-92.5 38.5t-89.5 -37t-35.5 -86z" />
<glyph unicode="-" horiz-adv-x="776" d="M123 543h530v239h-530v-239z" />
<glyph unicode="." horiz-adv-x="512" d="M123 109q0 -56 39 -95t94 -39t94 39t39 95q0 54 -39 92.5t-94 38.5t-94 -38.5t-39 -92.5z" />
<glyph unicode="/" horiz-adv-x="802" d="M123 -119h151l406 1559h-152z" />
<glyph unicode="0" horiz-adv-x="1187" d="M82 664q0 -326 139 -504q66 -90 166 -138.5t207 -46.5q107 -2 207 46.5t166 138.5q139 178 139 504q0 322 -139 505q-67 90 -166 136.5t-207 44.5q-108 2 -207 -44.5t-166 -136.5q-139 -183 -139 -505zM340 664q0 244 86 348q35 43 74 61.5t94 18.5t94 -18.5t74 -61.5 q86 -104 86 -348q0 -241 -86 -349q-35 -43 -74 -61.5t-94 -20.5q-55 2 -94 20.5t-74 61.5q-86 108 -86 349z" />
<glyph unicode="1" horiz-adv-x="673" d="M102 1061h162v-1061h266v1325h-221q-27 -34 -61 -55q-67 -38 -146 -47v-162z" />
<glyph unicode="2" horiz-adv-x="1101" d="M102 0h897v264h-559q27 46 178 162q166 127 250 223q127 144 127 291q0 177 -100 281q-81 81 -201 110q-78 19 -147 19q-239 0 -350 -127q-79 -93 -95 -230l252 -22q11 76 70 110q47 27 125 27q182 0 182 -133q0 -58 -39 -111q-64 -92 -237 -233q-6 -5 -146 -121 q-168 -150 -207 -246v-264z" />
<glyph unicode="3" horiz-adv-x="1075" d="M82 391q3 -187 137 -305q126 -111 318 -111t323 115q133 120 133 316q0 182 -164 290q108 99 121 252q2 6 2 31q0 155 -121 266q-121 105 -294 105q-168 0 -289 -103q-122 -106 -125 -260l248 -22q4 62 51.5 100.5t114.5 38.5q73 0 120.5 -43t47.5 -111v-2 q-3 -71 -50 -112q-59 -52 -204 -52v-188q145 -1 218.5 -51.5t73.5 -138.5q-4 -80 -62 -126.5t-142 -46.5h-2q-81 0 -138.5 42.5t-64.5 115.5h-252z" />
<glyph unicode="4" horiz-adv-x="1157" d="M82 264h530v-264h265v264h178v242h-178v819h-265l-530 -819v-242zM358 506l254 401v-401h-254z" />
<glyph unicode="5" horiz-adv-x="1163" d="M123 391q15 -176 147 -295q131 -121 312 -121q92 0 176.5 36t148.5 100q133 133 133 325q0 197 -118 318q-124 127 -340 127q-28 0 -78 -4l24 184h461v264h-692l-94 -690l262 -33q23 16 56 24.5t57 8.5h6q86 0 142 -57t56 -142q0 -86 -57.5 -144.5t-142.5 -58.5 q-72 0 -126.5 44.5t-72.5 113.5h-260z" />
<glyph unicode="6" horiz-adv-x="1103" d="M102 436q0 -192 136 -325q136 -136 325 -136q92 0 177 36t149 100q133 133 133 325q0 92 -35 177t-98 149q-64 63 -149 98t-177 35h-22l164 379l-236 102l-322 -743q-45 -91 -45 -197zM360 436q0 85 58.5 143t144.5 58q85 0 143 -58t58 -143q0 -86 -58 -144.5t-143 -58.5 q-86 0 -144.5 58.5t-58.5 144.5z" />
<glyph unicode="7" horiz-adv-x="1173" d="M123 1061h602q-146 -257 -225 -436q-166 -369 -224 -625h281q47 157 127 358q59 149 156 342q107 213 209 359l2 2v264h-928v-264z" />
<glyph unicode="8" horiz-adv-x="1097" d="M92 406q0 -197 135 -316q127 -115 322 -115q192 0 323 115q134 121 134 316q0 183 -166 290q123 111 123 283q0 155 -121 266q-121 105 -293 105q-175 0 -293 -105q-123 -110 -123 -266q0 -80 32 -154t91 -129q-164 -108 -164 -290zM344 406q-5 82 52 133t153 51 t151.5 -50.5t53.5 -133.5q-1 -79 -60.5 -126t-144.5 -47h-2q-85 0 -143.5 47t-59.5 126zM381 948v2q0 68 49 111t119 43t119 -43t49 -111v-2q0 -61 -39 -106q-46 -56 -129 -56q-87 0 -129 56q-39 45 -39 106z" />
<glyph unicode="9" horiz-adv-x="1103" d="M82 891q0 -191 135 -326q132 -135 326 -135h20l-164 -379l236 -102l323 743q43 87 43 199q0 92 -35 177t-98 149q-64 63 -148.5 98t-176.5 35q-193 0 -326 -133q-64 -64 -99.5 -148.5t-35.5 -177.5zM340 891q0 85 58.5 143t144.5 58q85 0 142.5 -58t57.5 -143 q0 -86 -57.5 -144.5t-142.5 -58.5q-86 0 -144.5 58.5t-58.5 144.5z" />
<glyph unicode=":" horiz-adv-x="512" d="M123 109q0 -56 39 -95t94 -39t94 39t39 95q0 54 -39 92.5t-94 38.5t-94 -38.5t-39 -92.5zM123 901q0 -55 38.5 -94t94.5 -39t94.5 39t38.5 94t-38.5 94t-94.5 39t-94.5 -39t-38.5 -94z" />
<glyph unicode=";" horiz-adv-x="509" d="M123 901q0 -55 38.5 -94t94.5 -39q54 0 92.5 39t38.5 94t-38.5 94t-92.5 39q-56 0 -94.5 -39t-38.5 -94zM131 117q0 -38 24 -65t54 -36q-2 -23 -29 -79l-43 -74l51 -37q23 20 68 65q58 58 109 142q1 3 10 26q12 28 12 50q0 54 -38.5 92.5t-92.5 38.5t-89.5 -37t-35.5 -86 z" />
<glyph unicode="&#x3c;" horiz-adv-x="1183" d="M102 532l959 -329v250l-653 211l653 208v250l-959 -327v-263z" />
<glyph unicode="=" horiz-adv-x="1189" d="M123 289h944v241h-944v-241zM123 795h944v241h-944v-241z" />
<glyph unicode="&#x3e;" horiz-adv-x="1183" d="M123 203l958 329v263l-958 327v-250l653 -208l-653 -211v-250z" />
<glyph unicode="?" horiz-adv-x="1038" d="M102 985l248 -20q6 62 53.5 100.5t114.5 38.5q70 0 119 -43t49 -111q0 -60 -24 -94q-37 -57 -132 -139q-68 -55 -110 -115q-68 -97 -68 -219h264q1 21 6.5 41.5t10.5 36t18.5 37t19 31.5t25.5 34t25 29.5t29.5 32.5t27.5 30q34 37 57 66t48 70t37.5 88t13.5 100 q3 156 -121 264q-123 107 -295 107q-173 0 -291 -105q-122 -106 -125 -260zM352 109q0 -55 38.5 -94.5t92.5 -39.5q55 0 94 39t39 95q0 54 -39 92.5t-94 38.5q-54 0 -92.5 -38.5t-38.5 -92.5z" />
<glyph unicode="@" horiz-adv-x="1572" d="M91 518q-19 125 5 242q51 247 264 424q99 81 224.5 124.5t255.5 41.5h16l47 -4q162 -19 295 -102t209 -220q64 -110 80 -266q13 -160 -23 -279q-24 -117 -94.5 -187.5t-167.5 -70.5q-120 0 -174 133q-86 -80 -197 -106q-47 -12 -96 -12h-2q-110 0 -200 54t-134 148 q-37 78 -40.5 159.5t20 151.5t70.5 134q67 92 161.5 147t190.5 55q147 0 241 -137l17 82h151l-10 -57q-18 -88 -29 -213q-19 -213 -2 -316q7 -41 25 -60t39.5 -15.5t42.5 24.5q63 66 78 215q17 162 -43 310q-28 72 -90 137l-47 45q-3 0 -7 3t-7 6l-3 3l-27 16q-23 18 -57 33 q-14 7 -18 8l-6 5h-2q-1 1 -3 1.5t-5 1t-5 1.5q-9 3 -12 6l-66 18l-34 6q-2 2 -13 2q-2 0 -4 2h-4q-63 5 -72 5h-12h-14q-9 -3 -17 -3h-18l-59 -10l-29 -6q-2 -2 -6 -2h-2h-2q-2 -2 -4 -2q-42 -14 -54 -20l-28 -13l-15 -6q-2 -1 -6 -4t-6 -4h-2l-10 -6q-6 -2 -25 -17 l-24 -16q-4 -3 -12.5 -9t-12.5 -9l-14 -13l-19 -18q-30 -28 -69 -80q-9 -9 -9 -10q0 -2 -2 -4q-1 -1 -6 -11q-2 -4 -8 -10l-27 -47l-22 -51l-10 -25v-4v-2q-4 -4 -4 -8q-15 -46 -21 -107q-4 -20 -4 -26q0 -19 -2 -29q0 -6 2 -12l-1 -8h-1q2 -4 2 -21q2 -40 16 -108l17 -52 l4 -12l10 -22q5 -12 51 -91q6 -6 15 -18l4 -7v1l4 -4l33 -35l20 -18q3 -3 10.5 -9.5t10.5 -9.5l18 -14q10 -10 16 -10q47 -31 84 -48l15 -6q8 -6 24 -6l25 -6q4 -1 12 -4t12 -4l29 -6h8q4 0 6 -2h23q33 -4 53 -2h31l3 1q4 0 7 1q10 0 12 2q5 0 33 4l37 8l12 4h2l62 23l35 16 l4 4q2 0 6 2q6 3 6 2q12 7 43 29l98 -103q-136 -93 -298.5 -120t-321.5 20q-118 36 -215 110t-160 177q-62 102 -81 227zM578 631q-3 -95 45 -146q27 -29 60 -42t56 -13h11q88 0 143 45q76 59 90 189q12 106 -41 165q-48 51 -117 54h-2q-79 0 -147 -54q-95 -77 -98 -198z M668 1194q2 0 4 2q0 -2 -2 -2h-2z" />
<glyph unicode="A" horiz-adv-x="1282" d="M104 0h265l65 264h414l65 -264h267l-340 1325h-398zM500 530l141 545l141 -545h-282z" />
<glyph unicode="B" horiz-adv-x="1167" d="M123 0h545q164 0 262 74q135 99 135 338q0 220 -174 305q100 93 100 229q0 168 -86 268q-65 70 -176 97q-59 14 -135 14h-471v-1325zM387 264v307h281q57 0 95 -36t38 -119q0 -81 -38 -116.5t-95 -35.5h-281zM387 795v290h229q49 0 78 -16q51 -32 51 -127 q0 -101 -51 -129q-29 -18 -78 -18h-229z" />
<glyph unicode="C" horiz-adv-x="1290" d="M92 664q0 -140 51.5 -266t143.5 -220q93 -96 213 -149.5t254 -53.5q247 0 434 166l-189 193q-106 -86 -245 -86q-166 0 -283 123q-117 120 -117 293q0 170 117 294q118 121 283 121q136 0 245 -88l189 193q-187 166 -434 166q-133 0 -253.5 -53t-213.5 -148 q-92 -95 -143.5 -220.5t-51.5 -264.5z" />
<glyph unicode="D" horiz-adv-x="1275" d="M123 0h530q237 0 373 143q101 104 139 289q19 93 19 232q0 136 -19 229q-38 185 -139 291q-138 141 -373 141h-530v-1325zM387 264v797h266q172 0 232 -150q33 -82 33 -247q0 -166 -33 -248q-60 -152 -232 -152h-266z" />
<glyph unicode="E" horiz-adv-x="1173" d="M123 0h928v264h-664v266h531v265h-531v266h664v264h-928v-1325z" />
<glyph unicode="F" horiz-adv-x="1153" d="M123 0h264v530h531v265h-531v266h664v264h-928v-1325z" />
<glyph unicode="G" horiz-adv-x="1409" d="M92 664q0 -140 51.5 -266t143.5 -220q93 -96 214 -149.5t255 -53.5q349 0 530 244v488h-264v-385q-49 -45 -111.5 -59.5t-154.5 -14.5q-166 0 -283 123q-119 119 -119 293q0 172 119 294q118 121 283 121q147 0 266 -104l186 190q-195 185 -452 185q-134 0 -255 -53.5 t-214 -147.5q-92 -95 -143.5 -220.5t-51.5 -264.5z" />
<glyph unicode="H" horiz-adv-x="1306" d="M123 0h264v530h531v-530h266v1325h-266v-530h-531v530h-264v-1325z" />
<glyph unicode="I" horiz-adv-x="573" d="M154 0h266v1325h-266v-1325z" />
<glyph unicode="J" horiz-adv-x="737" d="M61 4q14 -5 56 -14q58 -15 100 -15q133 0 232 64q72 48 116 135q43 84 49 199v952h-266v-952q-3 -45 -16 -68q-32 -65 -115 -65q-21 -3 -43 0q-7 1 -22 2t-23 2q-33 4 -47 10z" />
<glyph unicode="K" horiz-adv-x="1183" d="M123 0h266v610l402 -610h331l-465 666l463 659h-332l-399 -608v608h-266v-1325z" />
<glyph unicode="L" horiz-adv-x="1019" d="M123 0h795v264h-531v1061h-264v-1325z" />
<glyph unicode="M" horiz-adv-x="1572" d="M123 0h266l29 885l235 -885h267l235 885l29 -885h266l-74 1325h-325l-265 -956l-266 956h-323z" />
<glyph unicode="N" horiz-adv-x="1306" d="M123 0h264v829l531 -829h266v1325h-266v-825l-531 825h-264v-1325z" />
<glyph unicode="O" horiz-adv-x="1511" d="M92 664q0 -140 51.5 -266t143.5 -220q93 -96 214 -149.5t255 -53.5t255 53.5t214 149.5q92 94 143 219.5t51 266.5q0 139 -51 264.5t-143 220.5q-93 94 -214 147.5t-255 53.5t-255 -53.5t-214 -147.5q-92 -95 -143.5 -220.5t-51.5 -264.5zM354 664q0 172 119 294 q118 121 283 121q163 0 284 -121q117 -124 117 -294q0 -173 -117 -293q-120 -123 -284 -123q-166 0 -283 123q-119 119 -119 293z" />
<glyph unicode="P" horiz-adv-x="1132" d="M123 0h264v442h266q147 0 250 72q148 106 148 371q0 262 -148 368q-103 72 -250 72h-530v-1325zM387 707v354h266q133 0 133 -176q0 -178 -133 -178h-266z" />
<glyph unicode="Q" horiz-adv-x="1509" d="M92 664q0 -133 46.5 -253t129.5 -214q80 -93 191 -150.5t237 -69.5l269 -266l186 187l-133 135q180 79 289 248q110 171 110 383q0 139 -51 264.5t-143 220.5q-93 94 -214 147.5t-255 53.5t-255 -53.5t-212 -147.5q-91 -96 -143 -221.5t-52 -263.5zM354 664 q0 170 117 294q118 121 283 121q163 0 284 -121q117 -124 117 -294q0 -173 -117 -293q-120 -123 -284 -123q-166 0 -283 123q-117 120 -117 293z" />
<glyph unicode="R" horiz-adv-x="1204" d="M123 0h264v442h143l271 -442h332l-308 471q99 40 156 127q70 113 70 287q0 262 -148 368q-103 72 -250 72h-530v-1325zM387 707v354h266q133 0 133 -176q0 -178 -133 -178h-266z" />
<glyph unicode="S" horiz-adv-x="1130" d="M102 391q0 -81 25 -160q34 -107 127 -174q114 -82 313 -82q69 0 148 21q126 30 209 113q104 104 104 278q0 113 -47 184q-86 126 -274 195q-49 16 -156 57q-83 32 -125.5 65.5t-42.5 84.5q0 133 182 133q80 0 127 -27q59 -34 70 -110l252 22q-17 141 -94 232 q-111 127 -353 127q-69 0 -147 -19q-123 -29 -201 -110q-102 -102 -102 -283q0 -112 49 -182q86 -128 274 -193q142 -52 156 -57q81 -31 124.5 -67t43.5 -87q0 -67 -62 -106q-43 -27 -117 -27h-20q-89 4 -135 35q-61 41 -61 137h-267z" />
<glyph unicode="T" horiz-adv-x="1132" d="M102 1061h332v-1061h264v1061h332v264h-928v-264z" />
<glyph unicode="U" horiz-adv-x="1202" d="M123 397q0 -154 65 -252q113 -170 408 -170h10q297 0 410 170q63 95 63 252v928h-264v-924q0 -59 -31 -96q-54 -65 -178 -65h-10q-122 0 -176 65q-33 40 -33 96v924h-264v-928z" />
<glyph unicode="V" d="M102 1325l338 -1325h400l338 1325h-265l-274 -1065l-272 1065h-265z" />
<glyph unicode="W" horiz-adv-x="1654" d="M61 1325l236 -1325h264l266 530l265 -530h266l235 1325h-264l-164 -956l-231 559h-213l-232 -559l-163 956h-265z" />
<glyph unicode="X" horiz-adv-x="1425" d="M82 0h330l301 457l299 -457h331l-462 664l462 661h-331l-299 -457l-301 457h-330l463 -661z" />
<glyph unicode="Y" horiz-adv-x="1331" d="M61 1325l471 -795v-530h267v530l471 795h-295l-309 -557l-310 557h-295z" />
<glyph unicode="Z" horiz-adv-x="1173" d="M123 0h928v264h-605l605 797v264h-928v-264h604l-602 -797h-2v-264z" />
<glyph unicode="[" horiz-adv-x="665" d="M123 -262h481v237h-239v1375h239v241h-481v-1853z" />
<glyph unicode="\" horiz-adv-x="802" d="M123 1440l405 -1559h152l-404 1559h-153z" />
<glyph unicode="]" horiz-adv-x="665" d="M61 -25v-237h482v1853h-482v-241h242v-1375h-242z" />
<glyph unicode="^" horiz-adv-x="1077" d="M123 778h217l199 457l196 -457h219l-305 662h-221z" />
<glyph unicode="_" horiz-adv-x="1163" d="M61 -119v-143h1041v143h-1041z" />
<glyph unicode="`" horiz-adv-x="565" d="M61 1683l213 -280h168l-151 280h-230z" />
<glyph unicode="a" horiz-adv-x="1282" d="M104 0h265l65 264h414l65 -264h267l-340 1325h-398zM500 530l141 545l141 -545h-282z" />
<glyph unicode="b" horiz-adv-x="1167" d="M123 0h545q164 0 262 74q135 99 135 338q0 220 -174 305q100 93 100 229q0 168 -86 268q-65 70 -176 97q-59 14 -135 14h-471v-1325zM387 264v307h281q57 0 95 -36t38 -119q0 -81 -38 -116.5t-95 -35.5h-281zM387 795v290h229q49 0 78 -16q51 -32 51 -127 q0 -101 -51 -129q-29 -18 -78 -18h-229z" />
<glyph unicode="c" horiz-adv-x="1290" d="M92 664q0 -140 51.5 -266t143.5 -220q93 -96 213 -149.5t254 -53.5q247 0 434 166l-189 193q-106 -86 -245 -86q-166 0 -283 123q-117 120 -117 293q0 170 117 294q118 121 283 121q136 0 245 -88l189 193q-187 166 -434 166q-133 0 -253.5 -53t-213.5 -148 q-92 -95 -143.5 -220.5t-51.5 -264.5z" />
<glyph unicode="d" horiz-adv-x="1275" d="M123 0h530q237 0 373 143q101 104 139 289q19 93 19 232q0 136 -19 229q-38 185 -139 291q-138 141 -373 141h-530v-1325zM387 264v797h266q172 0 232 -150q33 -82 33 -247q0 -166 -33 -248q-60 -152 -232 -152h-266z" />
<glyph unicode="e" horiz-adv-x="1173" d="M123 0h928v264h-664v266h531v265h-531v266h664v264h-928v-1325z" />
<glyph unicode="f" horiz-adv-x="1153" d="M123 0h264v530h531v265h-531v266h664v264h-928v-1325z" />
<glyph unicode="g" horiz-adv-x="1409" d="M92 664q0 -140 51.5 -266t143.5 -220q93 -96 214 -149.5t255 -53.5q349 0 530 244v488h-264v-385q-49 -45 -111.5 -59.5t-154.5 -14.5q-166 0 -283 123q-119 119 -119 293q0 172 119 294q118 121 283 121q147 0 266 -104l186 190q-195 185 -452 185q-134 0 -255 -53.5 t-214 -147.5q-92 -95 -143.5 -220.5t-51.5 -264.5z" />
<glyph unicode="h" horiz-adv-x="1306" d="M123 0h264v530h531v-530h266v1325h-266v-530h-531v530h-264v-1325z" />
<glyph unicode="i" horiz-adv-x="573" d="M154 0h266v1325h-266v-1325z" />
<glyph unicode="j" horiz-adv-x="737" d="M61 4q14 -5 56 -14q58 -15 100 -15q133 0 232 64q72 48 116 135q43 84 49 199v952h-266v-952q-3 -45 -16 -68q-32 -65 -115 -65q-21 -3 -43 0q-7 1 -22 2t-23 2q-33 4 -47 10z" />
<glyph unicode="k" horiz-adv-x="1183" d="M123 0h266v610l402 -610h331l-465 666l463 659h-332l-399 -608v608h-266v-1325z" />
<glyph unicode="l" horiz-adv-x="1019" d="M123 0h795v264h-531v1061h-264v-1325z" />
<glyph unicode="m" horiz-adv-x="1572" d="M123 0h266l29 885l235 -885h267l235 885l29 -885h266l-74 1325h-325l-265 -956l-266 956h-323z" />
<glyph unicode="n" horiz-adv-x="1306" d="M123 0h264v829l531 -829h266v1325h-266v-825l-531 825h-264v-1325z" />
<glyph unicode="o" horiz-adv-x="1511" d="M92 664q0 -140 51.5 -266t143.5 -220q93 -96 214 -149.5t255 -53.5t255 53.5t214 149.5q92 94 143 219.5t51 266.5q0 139 -51 264.5t-143 220.5q-93 94 -214 147.5t-255 53.5t-255 -53.5t-214 -147.5q-92 -95 -143.5 -220.5t-51.5 -264.5zM354 664q0 172 119 294 q118 121 283 121q163 0 284 -121q117 -124 117 -294q0 -173 -117 -293q-120 -123 -284 -123q-166 0 -283 123q-119 119 -119 293z" />
<glyph unicode="p" horiz-adv-x="1132" d="M123 0h264v442h266q147 0 250 72q148 106 148 371q0 262 -148 368q-103 72 -250 72h-530v-1325zM387 707v354h266q133 0 133 -176q0 -178 -133 -178h-266z" />
<glyph unicode="q" horiz-adv-x="1509" d="M92 664q0 -133 46.5 -253t129.5 -214q80 -93 191 -150.5t237 -69.5l269 -266l186 187l-133 135q180 79 289 248q110 171 110 383q0 139 -51 264.5t-143 220.5q-93 94 -214 147.5t-255 53.5t-255 -53.5t-212 -147.5q-91 -96 -143 -221.5t-52 -263.5zM354 664 q0 170 117 294q118 121 283 121q163 0 284 -121q117 -124 117 -294q0 -173 -117 -293q-120 -123 -284 -123q-166 0 -283 123q-117 120 -117 293z" />
<glyph unicode="r" horiz-adv-x="1204" d="M123 0h264v442h143l271 -442h332l-308 471q99 40 156 127q70 113 70 287q0 262 -148 368q-103 72 -250 72h-530v-1325zM387 707v354h266q133 0 133 -176q0 -178 -133 -178h-266z" />
<glyph unicode="s" horiz-adv-x="1130" d="M102 391q0 -81 25 -160q34 -107 127 -174q114 -82 313 -82q69 0 148 21q126 30 209 113q104 104 104 278q0 113 -47 184q-86 126 -274 195q-49 16 -156 57q-83 32 -125.5 65.5t-42.5 84.5q0 133 182 133q80 0 127 -27q59 -34 70 -110l252 22q-17 141 -94 232 q-111 127 -353 127q-69 0 -147 -19q-123 -29 -201 -110q-102 -102 -102 -283q0 -112 49 -182q86 -128 274 -193q142 -52 156 -57q81 -31 124.5 -67t43.5 -87q0 -67 -62 -106q-43 -27 -117 -27h-20q-89 4 -135 35q-61 41 -61 137h-267z" />
<glyph unicode="t" horiz-adv-x="1132" d="M102 1061h332v-1061h264v1061h332v264h-928v-264z" />
<glyph unicode="u" horiz-adv-x="1202" d="M123 397q0 -154 65 -252q113 -170 408 -170h10q297 0 410 170q63 95 63 252v928h-264v-924q0 -59 -31 -96q-54 -65 -178 -65h-10q-122 0 -176 65q-33 40 -33 96v924h-264v-928z" />
<glyph unicode="v" d="M102 1325l338 -1325h400l338 1325h-265l-274 -1065l-272 1065h-265z" />
<glyph unicode="w" horiz-adv-x="1736" d="M102 1325l236 -1325h264l266 530l265 -530h266l235 1325h-264l-164 -956l-231 559h-213l-232 -559l-163 956h-265z" />
<glyph unicode="x" horiz-adv-x="1425" d="M82 0h330l301 457l299 -457h331l-462 664l462 661h-331l-299 -457l-301 457h-330l463 -661z" />
<glyph unicode="y" horiz-adv-x="1331" d="M61 1325l471 -795v-530h267v530l471 795h-295l-309 -557l-310 557h-295z" />
<glyph unicode="z" horiz-adv-x="1173" d="M123 0h928v264h-605l605 797v264h-928v-264h604l-602 -797h-2v-264z" />
<glyph unicode="{" horiz-adv-x="786" d="M123 557q23 -3 49 -10q37 -8 80 -27q61 -28 61 -121l2 -278q0 -61 22.5 -128.5t65.5 -121.5q107 -133 299 -133h23l-2 237h-23q-58 0 -84 23q-41 34 -49 72q-1 6 -4 14.5t-4 11.5q-4 20 -4 27v248q0 145 -72 221q-54 57 -131 72q80 20 131 73q70 77 70 221l-2 250 q0 7 4 27q3 25 18 55q15 28 41 44t80 16h23v241h-23q-189 0 -297 -135q-43 -54 -64.5 -121t-21.5 -129v-278q0 -60 -18 -84q-30 -40 -78 -53q-42 -14 -92 -23v-211z" />
<glyph unicode="|" horiz-adv-x="393" d="M123 -119h147v1559h-147v-1559z" />
<glyph unicode="}" horiz-adv-x="786" d="M61 -25v-237h23q192 0 299 133q43 54 65.5 121.5t22.5 128.5v278q0 59 21 86q25 34 79 52q42 12 91 20v107l2 104q-5 2 -15 4q-30 6 -37 8q-47 11 -77 27q-29 15 -45.5 41t-16.5 80l2 278q0 62 -21.5 129t-64.5 121q-108 135 -299 135h-22v-241h22q58 0 86 -19 q12 -9 21 -20t12.5 -17t9.5 -18.5t6 -13.5q8 -24 8 -54v-250q0 -148 70 -221q48 -53 129 -73q-77 -15 -129 -72q-72 -76 -72 -221l-2 -248q-1 -4 -2 -13t-2 -14l-6 -26q-3 -16 -12 -31q-38 -64 -123 -64h-23z" />
<glyph unicode="~" horiz-adv-x="1189" d="M123 627l201 -56q10 17 22 29q31 31 70 31q34 0 84 -29q13 -9 28.5 -19t35.5 -23t32 -21q53 -33 98 -50.5t99 -17.5q122 0 196 84q63 69 78 145l-199 54q-9 -18 -22 -31q-29 -29 -70 -29q-37 0 -82 31q-18 11 -98 63q-36 21 -60 32.5t-62 22.5t-75 11q-117 0 -196 -82 q-61 -66 -80 -145z" />
<glyph unicode="&#xa1;" horiz-adv-x="512" d="M123 -106v-132h266v132q0 150 -6 294t-29 517h-198q-3 -35 -5.5 -77t-6 -95t-5.5 -84q-16 -312 -16 -555zM123 981q0 -55 38.5 -94t94.5 -39t94.5 39t38.5 94q0 54 -39 92.5t-94 38.5t-94 -38.5t-39 -92.5z" />
<glyph unicode="&#xa2;" horiz-adv-x="1267" d="M82 662q0 -256 166 -443q78 -88 182.5 -143t224.5 -68v-127h148v123q238 13 373 135l-187 193q-106 -86 -246 -86q-165 0 -282 123q-117 120 -117 293q0 170 117 294q118 121 282 121q137 0 246 -88l187 193q-145 133 -373 149v109h-148v-113q-121 -17 -225.5 -74 t-181.5 -145q-166 -190 -166 -446z" />
<glyph unicode="&#xa3;" horiz-adv-x="1159" d="M123 12h162q113 0 196 -6q48 -4 248 -29q31 -6 94 -10q100 -3 224 29v233q-73 -19 -119 -22q-92 -10 -189 6q-17 3 -51 8.5t-47 7.5q-151 21 -276 21q43 43 65 88q37 76 37 160v90h362v147h-362v168q0 107 51 158q41 41 113 41q67 0 115.5 -38.5t52.5 -100.5l248 20 q-3 153 -123 260q-121 105 -293 105q-181 0 -291 -101q-123 -110 -123 -311l-2 -201h-92v-147h92v-107q0 -51 -14 -94q-29 -87 -78 -156v-219z" />
<glyph unicode="&#xa5;" horiz-adv-x="1329" d="M61 1325l402 -678h-152v-145h221v-119h-221v-147h221v-236h265v236h221v147h-221v119h221v145h-152l402 678h-293l-309 -557l-312 557h-293z" />
<glyph unicode="&#xa6;" horiz-adv-x="393" d="M123 -119h147v662h-147v-662zM123 782h147v658h-147v-658z" />
<glyph unicode="&#xa7;" horiz-adv-x="1015" d="M102 664q0 -70 41 -117q71 -85 234 -141l133 -52q70 -29 105.5 -54.5t35.5 -59.5q0 -51 -41 -74t-108 -21q-74 4 -117 27q-55 30 -55 94h-203q0 -108 53 -176q89 -115 324 -115q62 0 123 15q110 28 172 80q86 72 86 194q0 133 -113 207q55 13 98 65t43 126q0 70 -41 120 q-74 89 -231 144q-68 23 -131 49q-71 27 -107 51.5t-36 58.5q0 53 45 76q34 19 90 19q61 0 108 -26t54 -71l208 15q-17 107 -75 162q-94 90 -293 90q-61 0 -121 -13q-104 -23 -166 -77q-84 -74 -84 -199q0 -65 30 -118t79 -85q-55 -20 -90 -63q-50 -61 -50 -131zM301 688 q-2 57 49 83.5t131 2.5q77 -30 166 -72q63 -31 66 -67q1 -59 -53 -82.5t-128 0.5q-94 28 -149 55q-79 39 -82 80z" />
<glyph unicode="&#xa8;" horiz-adv-x="866" d="M123 1550q0 -47 33 -79.5t80 -32.5t79.5 32.5t32.5 79.5t-32.5 79t-79.5 32t-80 -32t-33 -79zM518 1550q0 -47 33 -79.5t80 -32.5t79.5 32.5t32.5 79.5t-32.5 79t-79.5 32t-80 -32t-33 -79z" />
<glyph unicode="&#xa9;" horiz-adv-x="1396" d="M92 664q0 -126 46.5 -237t131.5 -194q181 -178 428 -178q122 0 233.5 47t196.5 131q84 83 130.5 194t46.5 237q0 123 -46.5 234t-130.5 194q-85 84 -196.5 131t-233.5 47q-247 0 -428 -178q-84 -83 -131 -194t-47 -234zM238 664q0 93 35.5 177t99.5 148q136 133 325 133 q92 0 177 -35t149 -98q63 -64 98 -148.5t35 -176.5q0 -190 -133 -326q-64 -64 -148.5 -99.5t-177.5 -35.5q-190 0 -325 135t-135 326zM369 668q0 -140 96 -236q95 -98 227 -98q119 0 209 80l-90 94q-52 -43 -119 -43q-84 0 -137 59q-57 60 -57 144q0 83 57 143q53 59 137 59 q67 0 119 -43l90 95q-89 79 -209 79q-132 0 -227 -98q-96 -96 -96 -235z" />
<glyph unicode="&#xab;" horiz-adv-x="1181" d="M102 645l279 -479h235l-280 479l280 477h-235zM545 645l278 -479h236l-279 479l279 477h-236z" />
<glyph unicode="&#xad;" horiz-adv-x="776" d="M123 543h530v239h-530v-239z" />
<glyph unicode="&#xae;" horiz-adv-x="1398" d="M92 664q0 -125 47 -236t131 -195q83 -83 194.5 -130.5t233.5 -47.5t234.5 47.5t195.5 130.5q84 84 131.5 195t47.5 236q0 122 -47.5 233t-131.5 195q-83 83 -195.5 130.5t-234.5 47.5t-233.5 -47.5t-194.5 -130.5t-130.5 -194.5t-47.5 -233.5zM240 664q0 93 35.5 177 t99.5 148q133 133 323 133q92 0 177 -35t149 -98q64 -64 99.5 -148t35.5 -177q0 -191 -135 -326q-64 -64 -148.5 -99.5t-177.5 -35.5q-191 0 -323 135q-135 135 -135 326zM483 346h129v213h70l131 -213h162l-150 229q111 46 111 199q0 123 -72 180q-46 35 -123 35h-258v-643 zM612 688v172h129q66 0 66 -86t-66 -86h-129z" />
<glyph unicode="&#xb0;" horiz-adv-x="780" d="M102 1063q0 -121 84 -205t205 -84q119 0 203 84t84 205q0 119 -84 203t-203 84q-121 0 -205 -84t-84 -203zM250 1063q0 60 40.5 99.5t100.5 39.5q58 0 98.5 -40t40.5 -99t-41 -100t-98 -41q-60 0 -100.5 40.5t-40.5 100.5z" />
<glyph unicode="&#xb1;" horiz-adv-x="1077" d="M123 737h319v-321h193v321h319v191h-319v321h-193v-321h-319v-191zM127 106h823v193h-823v-193z" />
<glyph unicode="&#xb4;" horiz-adv-x="563" d="M123 1403h168l211 280h-230z" />
<glyph unicode="&#xb6;" horiz-adv-x="1198" d="M102 885q0 -263 172 -371q115 -72 271 -72h119v-561h147v1297h117v-1297h147v1444h-530q-156 0 -271 -72q-172 -108 -172 -368z" />
<glyph unicode="&#xb8;" horiz-adv-x="645" d="M123 -362h133q109 0 166 18q87 27 98 113q11 76 -61 118q-57 33 -174 33h-11l23 90h-84l-45 -188h111q84 0 108 -12q22 -13 19 -29q0 -5 -5 -10q-9 -9 -20 -11q-25 -10 -125 -10h-111z" />
<glyph unicode="&#xbb;" horiz-adv-x="1181" d="M123 166h233l281 479l-281 477h-233l278 -477zM565 166h236l278 479l-278 477h-236l279 -477z" />
<glyph unicode="&#xbf;" horiz-adv-x="1038" d="M104 109q-3 -157 121 -265q119 -106 295 -106q171 0 291 104q122 106 125 260l-248 21q-6 -62 -53.5 -99.5t-114.5 -37.5q-74 0 -121.5 41t-48.5 112q0 47 27 94q39 64 129 138q27 27 55 49q38 35 60 67q65 93 65 218h-264q-1 -21 -6.5 -41.5t-11 -36.5t-18.5 -36.5 t-20 -32t-25.5 -33.5t-25.5 -30t-29 -32.5t-28 -30.5q-35 -39 -57 -67t-46.5 -69t-37 -87.5t-13.5 -99.5zM422 981q0 -55 39 -94t94 -39q54 0 92.5 39t38.5 94q0 54 -38.5 92.5t-92.5 38.5q-55 0 -94 -38.5t-39 -92.5z" />
<glyph unicode="&#xc0;" d="M104 0h265l65 264h414l65 -264h267l-340 1325h-398zM446 1683l211 -280h168l-149 280h-230zM500 530l141 545l141 -545h-282z" />
<glyph unicode="&#xc1;" d="M104 0l338 1325h398l340 -1325h-267l-65 264h-414l-65 -264h-265zM453 1403h168l213 280h-232zM500 530h282l-141 545z" />
<glyph unicode="&#xc2;" d="M104 0h265l65 264h414l65 -264h267l-340 1325h-398zM281 1417h215l145 137l145 -137h213l-266 266h-186zM500 530l141 545l141 -545h-282z" />
<glyph unicode="&#xc3;" d="M104 0h265l65 264h414l65 -264h267l-340 1325h-398zM291 1497l151 -31q7 17 15 25q41 50 114 8q40 -24 76 -43q44 -21 77.5 -31t72.5 -6q83 3 141 72q39 46 51 113l-151 28q-7 -14 -15 -22q-17 -24 -51 -27q-31 -3 -63 16q-40 24 -76 43q-86 46 -150 39q-88 -8 -141 -71 q-38 -45 -51 -113zM500 530l141 545l141 -545h-282z" />
<glyph unicode="&#xc4;" d="M104 0h265l65 264h414l65 -264h267l-340 1325h-398zM330 1550q0 -47 32.5 -79.5t79.5 -32.5t79 32.5t32 79.5t-32 79t-79 32t-79.5 -32t-32.5 -79zM500 530l141 545l141 -545h-282zM725 1550q0 -47 33 -79.5t80 -32.5t78.5 32.5t31.5 79.5t-31.5 79t-78.5 32t-80 -32 t-33 -79z" />
<glyph unicode="&#xc5;" d="M102 0h267l67 264h410l67 -264h265l-338 1325q51 71 51 152q0 106 -72 178q-71 71 -178 71q-105 0 -176 -71q-74 -74 -74 -178q0 -86 51 -152zM504 530l137 545l137 -545h-274zM508 1477q0 55 38.5 93t94.5 38q54 0 92.5 -38t38.5 -93q0 -54 -38.5 -92.5t-92.5 -38.5 q-55 0 -94 38.5t-39 92.5z" />
<glyph unicode="&#xc6;" horiz-adv-x="1916" d="M0 0h289l143 264h434v-264h928v264h-661v266h530v265h-530v266h661v264h-1087zM578 530l288 531v-531h-288z" />
<glyph unicode="&#xc7;" horiz-adv-x="1318" d="M94 627q12 -221 139 -385q129 -167 318 -232l-45 -188h110q85 0 109 -12q21 -12 18 -29q0 -6 -4 -10q-9 -9 -20 -11q-25 -10 -125 -10h-111l-22 -112h133q109 0 166 18q87 27 98 113q11 76 -61 118q-57 33 -174 33h-11l17 68q84 -16 164 -13q241 15 424 191l-197 182 q-105 -91 -242 -100q-168 -9 -289 106q-123 117 -135 287q-9 168 103 299q109 128 276 137q135 9 250 -73l176 202q-196 156 -442 144q-134 -7 -252 -67.5t-205 -160.5q-86 -100 -129.5 -228t-36.5 -267z" />
<glyph unicode="&#xc8;" horiz-adv-x="1175" d="M123 0h930v264h-664v266h531v265h-531v266h664v264h-930v-1325zM301 1683l211 -280h170l-152 280h-229z" />
<glyph unicode="&#xc9;" horiz-adv-x="1175" d="M123 0v1325h930v-264h-664v-266h531v-265h-531v-266h664v-264h-930zM438 1403h168l213 280h-229z" />
<glyph unicode="&#xca;" horiz-adv-x="1173" d="M123 0h928v264h-664v266h531v265h-531v266h664v264h-928v-1325zM227 1417h213l146 137l145 -137h215l-266 266h-186z" />
<glyph unicode="&#xcb;" horiz-adv-x="1173" d="M123 0h928v264h-662v266h531v265h-531v266h662v264h-928v-1325zM279 1550q0 -47 31.5 -79.5t78.5 -32.5t80 32.5t33 79.5t-33 79t-80 32t-78.5 -32t-31.5 -79zM674 1550q0 -47 31.5 -79.5t78.5 -32.5t80 32.5t33 79.5t-33 79t-80 32t-78.5 -32t-31.5 -79z" />
<glyph unicode="&#xcc;" horiz-adv-x="616" d="M82 1683l213 -280h168l-152 280h-229zM197 0h266v1325h-266v-1325z" />
<glyph unicode="&#xcd;" horiz-adv-x="616" d="M154 0h266v1325h-266v-1325zM154 1403h170l211 280h-230z" />
<glyph unicode="&#xce;" horiz-adv-x="718" d="M0 1417h213l145 137l146 -137h215l-266 266h-189zM225 0h267v1325h-267v-1325z" />
<glyph unicode="&#xcf;" horiz-adv-x="661" d="M20 1550q0 -47 33 -79.5t80 -32.5t80 32.5t33 79.5t-33 79t-80 32t-80 -32t-33 -79zM199 0h264v1325h-264v-1325zM416 1550q0 -47 32.5 -79.5t79.5 -32.5t80 32.5t33 79.5t-33 79t-80 32t-79.5 -32t-32.5 -79z" />
<glyph unicode="&#xd0;" horiz-adv-x="1382" d="M82 590h147v-590h531q237 0 373 143q101 104 139 289q18 88 18 232q0 141 -18 229q-38 185 -139 291q-138 141 -373 141h-531v-588h-147v-147zM494 264v326h280v147h-280v324h266q171 0 231 -150q33 -82 33 -247q0 -166 -33 -248q-60 -152 -231 -152h-266z" />
<glyph unicode="&#xd1;" horiz-adv-x="1306" d="M123 0h266v829l531 -829h264v1325h-264v-825l-531 825h-266v-1325zM309 1497l152 -31q7 18 14 25q19 23 49.5 25.5t65.5 -17.5q40 -24 76 -43q82 -44 149 -37q83 3 141 72q40 48 52 113l-152 28q-8 -16 -14 -22q-17 -24 -51 -27q-32 -4 -64 16q-40 24 -76 43 q-31 15 -48.5 22.5t-45.5 13.5t-55 3q-89 -8 -142 -71q-37 -42 -51 -113z" />
<glyph unicode="&#xd2;" horiz-adv-x="1511" d="M92 664q0 -140 51.5 -266t143.5 -220q93 -96 214 -149.5t255 -53.5t255 53.5t214 149.5q92 94 143 219.5t51 266.5q0 139 -51 264.5t-143 220.5q-93 94 -214 147.5t-255 53.5t-255 -53.5t-214 -147.5q-92 -95 -143.5 -220.5t-51.5 -264.5zM354 664q0 172 119 294 q118 121 283 121q163 0 284 -121q117 -124 117 -294q0 -173 -117 -293q-120 -123 -284 -123q-166 0 -283 123q-119 119 -119 293zM508 1683l211 -280h170l-152 280h-229z" />
<glyph unicode="&#xd3;" horiz-adv-x="1511" d="M92 664q0 139 51.5 264.5t143.5 220.5q93 94 214 147.5t255 53.5t255 -53.5t214 -147.5q92 -95 143 -220.5t51 -264.5q0 -141 -51 -266.5t-143 -219.5q-93 -96 -214 -149.5t-255 -53.5t-255 53.5t-214 149.5q-92 94 -143.5 220t-51.5 266zM354 664q0 -174 119 -293 q117 -123 283 -123q164 0 284 123q117 120 117 293q0 170 -117 294q-121 121 -284 121q-165 0 -283 -121q-119 -122 -119 -294zM623 1403h170l211 280h-230z" />
<glyph unicode="&#xd4;" horiz-adv-x="1509" d="M92 664q0 -140 51.5 -266t143.5 -220q93 -96 213 -149.5t254 -53.5t255 53.5t214 149.5q92 94 143 219.5t51 266.5q0 139 -51 264.5t-143 220.5q-93 94 -214 147.5t-255 53.5q-133 0 -253.5 -53t-213.5 -148q-92 -95 -143.5 -220.5t-51.5 -264.5zM354 664q0 170 117 294 q118 121 283 121q163 0 284 -121q117 -124 117 -294q0 -173 -117 -293q-120 -123 -284 -123q-166 0 -283 123q-117 120 -117 293zM395 1417h213l146 137l145 -137h215l-266 266h-186z" />
<glyph unicode="&#xd5;" horiz-adv-x="1509" d="M92 664q0 -140 51.5 -266t143.5 -220q93 -96 213 -149.5t254 -53.5t255 53.5t214 149.5q92 94 143 219.5t51 266.5q0 139 -51 264.5t-143 220.5q-93 94 -214 147.5t-255 53.5q-133 0 -253.5 -53t-213.5 -148q-92 -95 -143.5 -220.5t-51.5 -264.5zM354 664q0 170 117 294 q118 121 283 121q163 0 284 -121q117 -124 117 -294q0 -173 -117 -293q-120 -123 -284 -123q-166 0 -283 123q-117 120 -117 293zM406 1497l151 -31q7 18 14 25q19 23 49.5 25.5t65.5 -17.5q40 -24 76 -43q82 -44 149 -37q84 3 142 72q39 46 51 113l-152 28q-8 -16 -14 -22 q-17 -24 -51 -27q-32 -4 -64 16q-46 28 -75 43q-86 46 -150 39q-88 -8 -141 -71q-38 -45 -51 -113z" />
<glyph unicode="&#xd6;" horiz-adv-x="1511" d="M92 664q0 -140 51.5 -266t143.5 -220q93 -96 214 -149.5t255 -53.5t255 53.5t214 149.5q92 94 143 219.5t51 266.5q0 139 -51 264.5t-143 220.5q-93 94 -214 147.5t-255 53.5t-255 -53.5t-214 -147.5q-92 -95 -143.5 -220.5t-51.5 -264.5zM356 664q0 170 117 294 q118 121 283 121q163 0 284 -121q117 -124 117 -294q0 -173 -117 -293q-120 -123 -284 -123q-166 0 -283 123q-117 120 -117 293zM446 1550q0 -47 33 -79.5t80 -32.5t79 32.5t32 79.5t-32 79t-79 32t-80 -32t-33 -79zM842 1550q0 -47 32.5 -79.5t79.5 -32.5t79 32.5t32 79.5 t-32 79t-79 32t-79.5 -32t-32.5 -79z" />
<glyph unicode="&#xd7;" horiz-adv-x="1083" d="M123 414l170 -170l250 250l248 -250l170 170l-248 250l248 247l-170 170l-248 -247l-250 247l-170 -170l250 -247z" />
<glyph unicode="&#xd8;" horiz-adv-x="1509" d="M92 664q0 -152 58.5 -285.5t164.5 -231.5l-77 -110l102 -72l74 107q154 -97 340 -97q134 0 255 53.5t214 149.5q92 94 143 219.5t51 266.5q0 151 -59.5 284t-165.5 232l76 108l-101 72l-75 -107q-151 97 -338 97q-133 0 -253.5 -53t-213.5 -148q-92 -95 -143.5 -220.5 t-51.5 -264.5zM354 664q0 170 117 294q118 121 283 121q99 0 182 -47l-465 -663q-117 123 -117 295zM569 293l467 665q119 -122 119 -294q0 -173 -117 -293q-120 -123 -284 -123q-102 0 -185 45z" />
<glyph unicode="&#xd9;" horiz-adv-x="1202" d="M123 397q0 -154 65 -252q113 -170 408 -170h10q297 0 410 170q63 95 63 252v928h-264v-924q0 -59 -31 -96q-54 -65 -178 -65h-10q-122 0 -176 65q-33 40 -33 96v924h-264v-928zM328 1683l211 -280h168l-150 280h-229z" />
<glyph unicode="&#xda;" horiz-adv-x="1202" d="M123 397q0 -154 65 -252q113 -170 408 -170h10q297 0 410 170q63 95 63 252v928h-264v-924q0 -59 -31 -96q-54 -65 -178 -65h-10q-122 0 -176 65q-33 40 -33 96v924h-264v-928zM496 1403h168l210 280h-229z" />
<glyph unicode="&#xdb;" horiz-adv-x="1202" d="M123 397q0 -87 20 -157q33 -115 127 -179q121 -86 326 -86h12q297 0 410 170q63 95 63 252v928h-264v-924q0 -59 -31 -96q-54 -65 -178 -65h-12q-126 0 -176 65q-31 40 -31 96v924h-266v-928zM244 1417h213l145 137l146 -137h215l-267 266h-186z" />
<glyph unicode="&#xdc;" horiz-adv-x="1202" d="M123 397q0 -154 65 -252q113 -170 408 -170h10q297 0 410 170q63 95 63 252v928h-264v-924q0 -59 -31 -96q-54 -65 -178 -65h-10q-122 0 -176 65q-33 40 -33 96v924h-264v-928zM293 1550q0 -47 31.5 -79.5t78.5 -32.5t80 32.5t33 79.5t-33 79t-80 32t-78.5 -32t-31.5 -79 zM688 1550q0 -47 32 -79.5t79 -32.5t79.5 32.5t32.5 79.5t-32.5 79t-79.5 32t-79 -32t-32 -79z" />
<glyph unicode="&#xdd;" horiz-adv-x="1331" d="M61 1325h295l310 -557l309 557h295l-471 -795v-530h-267v530zM563 1403h170l211 280h-229z" />
<glyph unicode="&#xde;" horiz-adv-x="1112" d="M123 0h266v221h264q147 0 250 72q148 106 148 371q0 262 -148 368q-103 72 -250 72h-264v221h-266v-1325zM389 485v355h264q133 0 133 -176q0 -179 -133 -179h-264z" />
<glyph unicode="&#xdf;" horiz-adv-x="1169" d="M123 -2h256v944q0 54 33 98q47 62 120 62q63 0 108 -33t52 -100q4 -32 -8 -66t-25.5 -54.5t-40.5 -57.5q-30 -42 -42 -59.5t-26.5 -54t-14.5 -69.5q0 -58 30 -102q54 -76 168 -129q42 -20 86 -45q25 -15 37.5 -27.5t15 -29.5t-15.5 -35q-24 -27 -98 -35q-92 -10 -262 22 v-229q91 -29 190 -29q196 0 303 90q98 82 98 213q0 117 -79 189q-16 14 -37.5 28t-36 22t-41.5 21t-35 17q-28 14 -42.5 23t-27 23t-12.5 30q0 8 2.5 18t5.5 17.5t10.5 20t12 19t15.5 22.5t16 23q65 93 77 195q24 169 -96 289q-121 121 -303 121q-196 0 -305 -138 q-88 -112 -88 -256v-958z" />
<glyph unicode="&#xe0;" d="M104 0h265l65 264h414l65 -264h267l-340 1325h-398zM446 1683l211 -280h168l-149 280h-230zM500 530l141 545l141 -545h-282z" />
<glyph unicode="&#xe1;" d="M104 0l338 1325h398l340 -1325h-267l-65 264h-414l-65 -264h-265zM453 1403h168l213 280h-232zM500 530h282l-141 545z" />
<glyph unicode="&#xe2;" d="M104 0h265l65 264h414l65 -264h267l-340 1325h-398zM281 1417h215l145 137l145 -137h213l-266 266h-186zM500 530l141 545l141 -545h-282z" />
<glyph unicode="&#xe3;" d="M104 0h265l65 264h414l65 -264h267l-340 1325h-398zM291 1497l151 -31q7 17 15 25q41 50 114 8q40 -24 76 -43q44 -21 77.5 -31t72.5 -6q83 3 141 72q39 46 51 113l-151 28q-7 -14 -15 -22q-17 -24 -51 -27q-31 -3 -63 16q-40 24 -76 43q-86 46 -150 39q-88 -8 -141 -71 q-38 -45 -51 -113zM500 530l141 545l141 -545h-282z" />
<glyph unicode="&#xe4;" d="M104 0h265l65 264h414l65 -264h267l-340 1325h-398zM330 1550q0 -47 32.5 -79.5t79.5 -32.5t79 32.5t32 79.5t-32 79t-79 32t-79.5 -32t-32.5 -79zM500 530l141 545l141 -545h-282zM725 1550q0 -47 33 -79.5t80 -32.5t78.5 32.5t31.5 79.5t-31.5 79t-78.5 32t-80 -32 t-33 -79z" />
<glyph unicode="&#xe5;" d="M102 0h267l67 264h410l67 -264h265l-338 1325q51 71 51 152q0 106 -72 178q-71 71 -178 71q-105 0 -176 -71q-74 -74 -74 -178q0 -86 51 -152zM504 530l137 545l137 -545h-274zM508 1477q0 55 38.5 93t94.5 38q54 0 92.5 -38t38.5 -93q0 -54 -38.5 -92.5t-92.5 -38.5 q-55 0 -94 38.5t-39 92.5z" />
<glyph unicode="&#xe6;" horiz-adv-x="1978" d="M61 0h289l144 264h434v-264h927v264h-661v266h530v265h-530v266h661v264h-1087zM639 530l289 531v-531h-289z" />
<glyph unicode="&#xe7;" horiz-adv-x="1318" d="M94 627q12 -221 139 -385q129 -167 318 -232l-45 -188h110q85 0 109 -12q21 -12 18 -29q0 -6 -4 -10q-9 -9 -20 -11q-25 -10 -125 -10h-111l-22 -112h133q109 0 166 18q87 27 98 113q11 76 -61 118q-57 33 -174 33h-11l17 68q84 -16 164 -13q241 15 424 191l-197 182 q-105 -91 -242 -100q-168 -9 -289 106q-123 117 -135 287q-9 168 103 299q109 128 276 137q135 9 250 -73l176 202q-196 156 -442 144q-134 -7 -252 -67.5t-205 -160.5q-86 -100 -129.5 -228t-36.5 -267z" />
<glyph unicode="&#xe8;" horiz-adv-x="1175" d="M123 0h930v264h-664v266h531v265h-531v266h664v264h-930v-1325zM301 1683l211 -280h170l-152 280h-229z" />
<glyph unicode="&#xe9;" horiz-adv-x="1175" d="M123 0v1325h930v-264h-664v-266h531v-265h-531v-266h664v-264h-930zM438 1403h168l213 280h-229z" />
<glyph unicode="&#xea;" horiz-adv-x="1173" d="M123 0h928v264h-664v266h531v265h-531v266h664v264h-928v-1325zM227 1417h213l146 137l145 -137h215l-266 266h-186z" />
<glyph unicode="&#xeb;" horiz-adv-x="1173" d="M123 0h928v264h-662v266h531v265h-531v266h662v264h-928v-1325zM279 1550q0 -47 31.5 -79.5t78.5 -32.5t80 32.5t33 79.5t-33 79t-80 32t-78.5 -32t-31.5 -79zM674 1550q0 -47 31.5 -79.5t78.5 -32.5t80 32.5t33 79.5t-33 79t-80 32t-78.5 -32t-31.5 -79z" />
<glyph unicode="&#xec;" horiz-adv-x="616" d="M82 1683l213 -280h168l-152 280h-229zM197 0h266v1325h-266v-1325z" />
<glyph unicode="&#xed;" horiz-adv-x="616" d="M154 0h266v1325h-266v-1325zM154 1403h170l211 280h-230z" />
<glyph unicode="&#xee;" horiz-adv-x="718" d="M0 1417h213l145 137l146 -137h215l-266 266h-189zM225 0h267v1325h-267v-1325z" />
<glyph unicode="&#xef;" horiz-adv-x="661" d="M20 1550q0 -47 33 -79.5t80 -32.5t80 32.5t33 79.5t-33 79t-80 32t-80 -32t-33 -79zM199 0h264v1325h-264v-1325zM416 1550q0 -47 32.5 -79.5t79.5 -32.5t80 32.5t33 79.5t-33 79t-80 32t-79.5 -32t-32.5 -79z" />
<glyph unicode="&#xf0;" horiz-adv-x="1382" d="M82 590h147v-590h531q237 0 373 143q101 104 139 289q18 88 18 232q0 141 -18 229q-38 185 -139 291q-138 141 -373 141h-531v-588h-147v-147zM494 264v326h280v147h-280v324h266q171 0 231 -150q33 -82 33 -247q0 -166 -33 -248q-60 -152 -231 -152h-266z" />
<glyph unicode="&#xf1;" horiz-adv-x="1306" d="M123 0h266v829l531 -829h264v1325h-264v-825l-531 825h-266v-1325zM309 1497l152 -31q7 18 14 25q19 23 49.5 25.5t65.5 -17.5q40 -24 76 -43q82 -44 149 -37q83 3 141 72q40 48 52 113l-152 28q-8 -16 -14 -22q-17 -24 -51 -27q-32 -4 -64 16q-40 24 -76 43 q-31 15 -48.5 22.5t-45.5 13.5t-55 3q-89 -8 -142 -71q-37 -42 -51 -113z" />
<glyph unicode="&#xf2;" horiz-adv-x="1511" d="M92 664q0 -140 51.5 -266t143.5 -220q93 -96 214 -149.5t255 -53.5t255 53.5t214 149.5q92 94 143 219.5t51 266.5q0 139 -51 264.5t-143 220.5q-93 94 -214 147.5t-255 53.5t-255 -53.5t-214 -147.5q-92 -95 -143.5 -220.5t-51.5 -264.5zM354 664q0 172 119 294 q118 121 283 121q163 0 284 -121q117 -124 117 -294q0 -173 -117 -293q-120 -123 -284 -123q-166 0 -283 123q-119 119 -119 293zM508 1683l211 -280h170l-152 280h-229z" />
<glyph unicode="&#xf3;" horiz-adv-x="1511" d="M92 664q0 139 51.5 264.5t143.5 220.5q93 94 214 147.5t255 53.5t255 -53.5t214 -147.5q92 -95 143 -220.5t51 -264.5q0 -141 -51 -266.5t-143 -219.5q-93 -96 -214 -149.5t-255 -53.5t-255 53.5t-214 149.5q-92 94 -143.5 220t-51.5 266zM354 664q0 -174 119 -293 q117 -123 283 -123q164 0 284 123q117 120 117 293q0 170 -117 294q-121 121 -284 121q-165 0 -283 -121q-119 -122 -119 -294zM623 1403h170l211 280h-230z" />
<glyph unicode="&#xf4;" horiz-adv-x="1509" d="M92 664q0 -140 51.5 -266t143.5 -220q93 -96 213 -149.5t254 -53.5t255 53.5t214 149.5q92 94 143 219.5t51 266.5q0 139 -51 264.5t-143 220.5q-93 94 -214 147.5t-255 53.5q-133 0 -253.5 -53t-213.5 -148q-92 -95 -143.5 -220.5t-51.5 -264.5zM354 664q0 170 117 294 q118 121 283 121q163 0 284 -121q117 -124 117 -294q0 -173 -117 -293q-120 -123 -284 -123q-166 0 -283 123q-117 120 -117 293zM395 1417h213l146 137l145 -137h215l-266 266h-186z" />
<glyph unicode="&#xf5;" horiz-adv-x="1509" d="M92 664q0 -140 51.5 -266t143.5 -220q93 -96 213 -149.5t254 -53.5t255 53.5t214 149.5q92 94 143 219.5t51 266.5q0 139 -51 264.5t-143 220.5q-93 94 -214 147.5t-255 53.5q-133 0 -253.5 -53t-213.5 -148q-92 -95 -143.5 -220.5t-51.5 -264.5zM354 664q0 170 117 294 q118 121 283 121q163 0 284 -121q117 -124 117 -294q0 -173 -117 -293q-120 -123 -284 -123q-166 0 -283 123q-117 120 -117 293zM406 1497l151 -31q7 18 14 25q19 23 49.5 25.5t65.5 -17.5q40 -24 76 -43q82 -44 149 -37q84 3 142 72q39 46 51 113l-152 28q-8 -16 -14 -22 q-17 -24 -51 -27q-32 -4 -64 16q-46 28 -75 43q-86 46 -150 39q-88 -8 -141 -71q-38 -45 -51 -113z" />
<glyph unicode="&#xf6;" horiz-adv-x="1511" d="M92 664q0 -140 51.5 -266t143.5 -220q93 -96 214 -149.5t255 -53.5t255 53.5t214 149.5q92 94 143 219.5t51 266.5q0 139 -51 264.5t-143 220.5q-93 94 -214 147.5t-255 53.5t-255 -53.5t-214 -147.5q-92 -95 -143.5 -220.5t-51.5 -264.5zM356 664q0 170 117 294 q118 121 283 121q163 0 284 -121q117 -124 117 -294q0 -173 -117 -293q-120 -123 -284 -123q-166 0 -283 123q-117 120 -117 293zM446 1550q0 -47 33 -79.5t80 -32.5t79 32.5t32 79.5t-32 79t-79 32t-80 -32t-33 -79zM842 1550q0 -47 32.5 -79.5t79.5 -32.5t79 32.5t32 79.5 t-32 79t-79 32t-79.5 -32t-32.5 -79z" />
<glyph unicode="&#xf7;" horiz-adv-x="1181" d="M123 543h936v239h-936v-239zM446 268q0 -55 39 -94t93 -39q55 0 93 38.5t38 94.5q0 54 -38 92.5t-93 38.5q-54 0 -93 -38.5t-39 -92.5zM446 1059q0 -55 39 -94t93 -39q55 0 93 38.5t38 94.5q0 54 -38 92.5t-93 38.5q-54 0 -93 -38.5t-39 -92.5z" />
<glyph unicode="&#xf8;" horiz-adv-x="1509" d="M92 664q0 -152 58.5 -285.5t164.5 -231.5l-77 -110l102 -72l74 107q154 -97 340 -97q134 0 255 53.5t214 149.5q92 94 143 219.5t51 266.5q0 151 -59.5 284t-165.5 232l76 108l-101 72l-75 -107q-151 97 -338 97q-133 0 -253.5 -53t-213.5 -148q-92 -95 -143.5 -220.5 t-51.5 -264.5zM354 664q0 170 117 294q118 121 283 121q99 0 182 -47l-465 -663q-117 123 -117 295zM569 293l467 665q119 -122 119 -294q0 -173 -117 -293q-120 -123 -284 -123q-102 0 -185 45z" />
<glyph unicode="&#xf9;" horiz-adv-x="1202" d="M123 397q0 -154 65 -252q113 -170 408 -170h10q297 0 410 170q63 95 63 252v928h-264v-924q0 -59 -31 -96q-54 -65 -178 -65h-10q-122 0 -176 65q-33 40 -33 96v924h-264v-928zM328 1683l211 -280h168l-150 280h-229z" />
<glyph unicode="&#xfa;" horiz-adv-x="1202" d="M123 397q0 -154 65 -252q113 -170 408 -170h10q297 0 410 170q63 95 63 252v928h-264v-924q0 -59 -31 -96q-54 -65 -178 -65h-10q-122 0 -176 65q-33 40 -33 96v924h-264v-928zM496 1403h168l210 280h-229z" />
<glyph unicode="&#xfb;" horiz-adv-x="1202" d="M123 397q0 -87 20 -157q33 -115 127 -179q121 -86 326 -86h12q297 0 410 170q63 95 63 252v928h-264v-924q0 -59 -31 -96q-54 -65 -178 -65h-12q-126 0 -176 65q-31 40 -31 96v924h-266v-928zM244 1417h213l145 137l146 -137h215l-267 266h-186z" />
<glyph unicode="&#xfc;" horiz-adv-x="1202" d="M123 397q0 -154 65 -252q113 -170 408 -170h10q297 0 410 170q63 95 63 252v928h-264v-924q0 -59 -31 -96q-54 -65 -178 -65h-10q-122 0 -176 65q-33 40 -33 96v924h-264v-928zM293 1550q0 -47 31.5 -79.5t78.5 -32.5t80 32.5t33 79.5t-33 79t-80 32t-78.5 -32t-31.5 -79 zM688 1550q0 -47 32 -79.5t79 -32.5t79.5 32.5t32.5 79.5t-32.5 79t-79.5 32t-79 -32t-32 -79z" />
<glyph unicode="&#xfd;" horiz-adv-x="1454" d="M123 1325h295l309 -557l309 557h295l-471 -795v-530h-266v530zM625 1403h170l211 280h-230z" />
<glyph unicode="&#xfe;" horiz-adv-x="1112" d="M123 0h266v221h264q147 0 250 72q148 106 148 371q0 262 -148 368q-103 72 -250 72h-264v221h-266v-1325zM389 485v355h264q133 0 133 -176q0 -179 -133 -179h-264z" />
<glyph unicode="&#xff;" horiz-adv-x="1331" d="M61 1325l471 -795v-530h265v530l473 795h-295l-309 -557l-310 557h-295zM356 1550q0 -47 32 -79.5t79 -32.5t80 32.5t33 79.5t-33 79t-80 32t-79 -32t-32 -79zM752 1550q0 -47 31.5 -79.5t78.5 -32.5t80 32.5t33 79.5t-33 79t-80 32t-78.5 -32t-31.5 -79z" />
<glyph unicode="&#x152;" horiz-adv-x="1982" d="M92 664q0 -140 51.5 -266t143.5 -220q93 -96 214 -149.5t255 -53.5q87 0 176 25h928v264h-664v266h530v265h-530v266h664v264h-928q-89 25 -176 25q-134 0 -255 -53.5t-214 -147.5q-92 -95 -143.5 -220.5t-51.5 -264.5zM354 664q0 172 119 294q118 121 283 121 q88 0 176 -43v-747q-84 -41 -176 -41q-166 0 -283 123q-119 119 -119 293z" />
<glyph unicode="&#x153;" horiz-adv-x="1982" d="M92 664q0 -140 51.5 -266t143.5 -220q93 -96 214 -149.5t255 -53.5q87 0 176 25h928v264h-664v266h530v265h-530v266h664v264h-928q-89 25 -176 25q-134 0 -255 -53.5t-214 -147.5q-92 -95 -143.5 -220.5t-51.5 -264.5zM354 664q0 172 119 294q118 121 283 121 q88 0 176 -43v-747q-84 -41 -176 -41q-166 0 -283 123q-119 119 -119 293z" />
<glyph unicode="&#x178;" horiz-adv-x="1331" d="M61 1325l471 -795v-530h265v530l473 795h-295l-309 -557l-310 557h-295zM356 1550q0 -47 32 -79.5t79 -32.5t80 32.5t33 79.5t-33 79t-80 32t-79 -32t-32 -79zM752 1550q0 -47 31.5 -79.5t78.5 -32.5t80 32.5t33 79.5t-33 79t-80 32t-78.5 -32t-31.5 -79z" />
<glyph unicode="&#x2c6;" horiz-adv-x="964" d="M123 1417h215l145 137l146 -137h213l-264 266h-189z" />
<glyph unicode="&#x2dc;" horiz-adv-x="944" d="M123 1497l151 -31q7 17 15 25q41 50 114 8q40 -24 76 -43q82 -44 150 -37q83 3 141 72q39 46 51 113l-151 28q-7 -14 -15 -22q-17 -24 -51 -27q-31 -3 -63 16q-40 24 -76 43q-86 46 -150 39q-88 -8 -141 -71q-38 -45 -51 -113z" />
<glyph unicode="&#x2000;" horiz-adv-x="863" />
<glyph unicode="&#x2001;" horiz-adv-x="1726" />
<glyph unicode="&#x2002;" horiz-adv-x="863" />
<glyph unicode="&#x2003;" horiz-adv-x="1726" />
<glyph unicode="&#x2004;" horiz-adv-x="575" />
<glyph unicode="&#x2005;" horiz-adv-x="431" />
<glyph unicode="&#x2006;" horiz-adv-x="287" />
<glyph unicode="&#x2007;" horiz-adv-x="287" />
<glyph unicode="&#x2008;" horiz-adv-x="215" />
<glyph unicode="&#x2009;" horiz-adv-x="345" />
<glyph unicode="&#x200a;" horiz-adv-x="95" />
<glyph unicode="&#x2010;" horiz-adv-x="776" d="M123 543h530v239h-530v-239z" />
<glyph unicode="&#x2011;" horiz-adv-x="776" d="M123 543h530v239h-530v-239z" />
<glyph unicode="&#x2012;" horiz-adv-x="776" d="M123 543h530v239h-530v-239z" />
<glyph unicode="&#x2013;" horiz-adv-x="1304" d="M123 543h1059v239h-1059v-239z" />
<glyph unicode="&#x2014;" horiz-adv-x="1777" d="M123 543h1532v239h-1532v-239z" />
<glyph unicode="&#x2018;" horiz-adv-x="503" d="M123 1069q0 -55 38.5 -94t94.5 -39q54 0 89.5 38t35.5 87q0 38 -24 64.5t-54 35.5q6 29 10 39q11 32 43 82l17 31l-49 37q-15 -13 -68 -66q-77 -77 -111 -139q-22 -49 -22 -76z" />
<glyph unicode="&#x2019;" horiz-adv-x="501" d="M123 1227q0 -38 24 -65t54 -36q-2 -23 -29 -79l-43 -74l51 -37q23 20 68 65q55 55 108 142q1 5 5.5 14t5.5 12q12 28 12 50q0 54 -38.5 92.5t-92.5 38.5t-89.5 -37t-35.5 -86z" />
<glyph unicode="&#x201a;" horiz-adv-x="503" d="M123 264q0 -38 24 -64.5t54 -33.5q-2 -27 -29 -82q-15 -27 -43 -72l51 -37q15 13 68 66q57 57 108 141l13 27q12 28 12 47q0 56 -38.5 94.5t-94.5 38.5q-54 0 -89.5 -38t-35.5 -87z" />
<glyph unicode="&#x201c;" horiz-adv-x="876" d="M123 1069q0 -55 38.5 -94t92.5 -39t89.5 38t35.5 87q0 38 -24 64.5t-54 35.5q3 31 31 82q9 19 41 70l-51 37q-15 -13 -68 -66q-72 -72 -109 -139q-22 -49 -22 -76zM498 1069q0 -55 38.5 -94t92.5 -39t89.5 38t35.5 87q0 38 -24 64.5t-54 35.5q3 31 31 82q9 19 41 70 l-52 37q-8 -7 -67 -66q-72 -72 -109 -139q-22 -49 -22 -76z" />
<glyph unicode="&#x201d;" horiz-adv-x="878" d="M123 1227q0 -38 24 -65t54 -36q0 -17 -8 -36q-20 -48 -43 -84l-19 -33l49 -37q23 20 68 65q60 60 110 142q1 5 5.5 14t5.5 12q12 28 12 50q0 54 -39 92.5t-94 38.5q-54 0 -89.5 -37t-35.5 -86zM498 1227q0 -38 24 -65t53 -36q0 -17 -8 -36q-20 -48 -43 -84l-18 -33 l49 -37q23 20 68 65q60 60 110 142q1 3 10 26q13 30 13 50q0 54 -39 92.5t-94 38.5q-54 0 -89.5 -37t-35.5 -86z" />
<glyph unicode="&#x201e;" horiz-adv-x="878" d="M123 264q0 -38 24 -64.5t54 -33.5q-2 -27 -29 -82q-15 -27 -43 -72l51 -37q15 13 68 66q57 57 108 141l13 27q12 28 12 47q0 56 -38.5 94.5t-94.5 38.5q-54 0 -89.5 -38t-35.5 -87zM498 264q0 -38 23.5 -64.5t53.5 -33.5q-3 -29 -28 -82q-15 -27 -43 -72l51 -37 q15 13 68 66q57 57 108 141l12 27q13 30 13 47q0 56 -39 94.5t-94 38.5q-54 0 -89.5 -38t-35.5 -87z" />
<glyph unicode="&#x2022;" horiz-adv-x="731" d="M123 664q0 -100 72 -172t172 -72q98 0 170 72q71 71 71 172q0 99 -71 170t-170 71q-101 0 -172 -71q-72 -72 -72 -170z" />
<glyph unicode="&#x2026;" horiz-adv-x="1482" d="M123 109q0 -56 39 -95t94 -39q54 0 92.5 39.5t38.5 94.5q0 54 -38.5 92.5t-92.5 38.5q-55 0 -94 -38.5t-39 -92.5zM608 109q0 -56 39 -95t94 -39t94 39t39 95q0 54 -39 92.5t-94 38.5t-94 -38.5t-39 -92.5zM1096 109q0 -55 38.5 -94.5t92.5 -39.5q55 0 94 39t39 95 q0 54 -39 92.5t-94 38.5q-54 0 -92.5 -38.5t-38.5 -92.5z" />
<glyph unicode="&#x202f;" horiz-adv-x="345" />
<glyph unicode="&#x2039;" horiz-adv-x="739" d="M102 645l279 -479h235l-280 479l280 477h-235z" />
<glyph unicode="&#x203a;" horiz-adv-x="739" d="M123 166h233l281 479l-281 477h-233l278 -477z" />
<glyph unicode="&#x205f;" horiz-adv-x="431" />
<glyph unicode="&#x20ac;" horiz-adv-x="1175" d="M102 457h111q29 -176 121 -301q70 -90 169 -136.5t206 -44.5q103 -2 200 42t164 128l-166 168q-41 -43 -86.5 -61.5t-111.5 -18.5q-56 2 -95.5 20t-74.5 60q-42 52 -64 144h334v147h-354v29q-3 15 0 31q-3 15 0 30v27h354v147h-334q22 92 64 144q35 43 74.5 61.5 t95.5 18.5q66 0 111.5 -18.5t86.5 -61.5l166 168q-67 84 -164 128t-200 42q-105 3 -203 -43q-107 -47 -185.5 -157.5t-107.5 -281.5h-111v-147h95v-117h-95v-147z" />
<glyph unicode="&#x2122;" horiz-adv-x="1234" d="M123 1221h133v-426h104v426h134v104h-371v-104zM582 795h106l12 354l95 -354h106l94 354l13 -354h104l-29 530h-129l-106 -383l-107 383h-129z" />
<glyph unicode="&#x25fc;" horiz-adv-x="1320" d="M0 0v1321h1321v-1321h-1321z" />
</font>
</defs>
</svg>
